<svg width="716" height="160" viewBox="0 0 716 160" fill="none" xmlns="http://www.w3.org/2000/svg">
<path d="M106.68 120.154C103.256 116.73 98.6128 114.806 93.7709 114.806C88.9308 114.809 84.29 116.734 80.8687 120.158C77.4473 123.581 75.5254 128.223 75.5254 133.063C75.5254 135.461 75.9976 137.835 76.9151 140.05C77.8326 142.265 79.1774 144.277 80.8727 145.973C82.5679 147.668 84.5805 149.013 86.7955 149.93C89.0105 150.848 91.3845 151.32 93.782 151.32C97.457 151.318 101.017 150.207 104.016 148.174L112.027 160V133.163C112.027 133.13 112.028 133.096 112.028 133.063C112.028 128.221 110.104 123.578 106.68 120.154Z" fill="#01121C"/>
<path d="M131.037 0.00564303H54.8744C50.0339 -0.114663 45.3439 1.69283 41.8361 5.0305C38.3283 8.36816 36.29 12.9626 36.1697 17.8031C36.0494 22.6436 37.8569 27.3336 41.1946 30.8414C44.5322 34.3492 49.1267 36.3874 53.9671 36.5078C54.2733 36.5078 54.5757 36.5078 54.8744 36.5078H131.037C133.434 36.5673 135.819 36.1542 138.056 35.2921C140.293 34.4299 142.339 33.1355 144.075 31.4829C145.812 29.8302 147.207 27.8517 148.179 25.6602C149.151 23.4686 149.682 21.1071 149.742 18.7103C149.801 16.3136 149.388 13.9285 148.526 11.6914C147.664 9.45429 146.37 7.4089 144.717 5.67201C143.064 3.93512 141.086 2.54075 138.894 1.56851C136.703 0.596277 134.341 0.0652127 131.944 0.00564303H131.037Z" fill="#01121C"/>
<path fill-rule="evenodd" clip-rule="evenodd" d="M125.393 6.05961C124.546 6.90692 124.546 8.28068 125.393 9.12798L133.984 17.7189L125.393 26.3098C124.546 27.1571 124.546 28.5309 125.393 29.3782C126.241 30.2255 127.614 30.2255 128.462 29.3782L138.587 19.2531C139.434 18.4058 139.434 17.032 138.587 16.1847L128.462 6.05961C127.614 5.21231 126.241 5.21231 125.393 6.05961Z" fill="#01121C"/>
<path d="M94.873 57.8634H18.7103C13.8698 57.7431 9.17981 59.5506 5.67201 62.8883C2.1642 66.2259 0.12595 70.8204 0.00564303 75.6608C-0.114663 80.5013 1.69283 85.1913 5.0305 88.6991C8.36817 92.207 12.9626 94.2452 17.8031 94.3655C18.1092 94.3655 18.4116 94.3655 18.7103 94.3655H94.873C97.2698 94.4251 99.6548 94.012 101.892 93.1498C104.129 92.2877 106.174 90.9933 107.911 89.3407C109.648 87.688 111.043 85.7094 112.015 83.5179C112.987 81.3264 113.518 78.9648 113.578 76.5681C113.637 74.1713 113.224 71.7863 112.362 69.5492C111.5 67.3121 110.206 65.2667 108.553 63.5298C106.9 61.7929 104.922 60.3985 102.73 59.4263C100.539 58.454 98.1771 57.923 95.7803 57.8634H94.873Z" fill="#32B7FF"/>
<path fill-rule="evenodd" clip-rule="evenodd" d="M24.677 64.8078C25.5243 65.6551 25.5243 67.0288 24.677 67.8762L16.0861 76.4671L24.677 85.058C25.5243 85.9053 25.5243 87.2791 24.677 88.1264C23.8297 88.9737 22.456 88.9737 21.6087 88.1264L11.4835 78.0013C10.6362 77.154 10.6362 75.7802 11.4835 74.9329L21.6087 64.8078C22.456 63.9605 23.8297 63.9605 24.677 64.8078Z" fill="white"/>
<path d="M426.726 49.6487C426.076 50.6654 425.743 51.8524 425.77 53.0587C425.822 54.6504 426.49 56.1598 427.633 57.2691C428.775 58.3785 430.304 59.0011 431.897 59.0061C433.103 58.9969 434.28 58.629 435.277 57.9492C436.274 57.2695 437.046 56.3085 437.495 55.1886C437.944 54.0687 438.05 52.8406 437.799 51.6603C437.548 50.48 436.952 49.4011 436.087 48.5606C435.221 47.7201 434.125 47.1562 432.937 46.9406C431.75 46.7249 430.526 46.8672 429.42 47.3495C428.314 47.8317 427.376 48.6321 426.726 49.6487Z" fill="#01121C"/>
<path d="M437.844 107.784V71.5505C437.844 69.9613 437.213 68.4371 436.089 67.3134C434.965 66.1896 433.441 65.5583 431.852 65.5583C430.263 65.5583 428.738 66.1896 427.615 67.3134C426.491 68.4371 425.86 69.9613 425.86 71.5505V107.784C425.86 109.373 426.491 110.897 427.615 112.021C428.738 113.145 430.263 113.776 431.852 113.776C433.441 113.776 434.965 113.145 436.089 112.021C437.213 110.897 437.844 109.373 437.844 107.784Z" fill="#01121C"/>
<path d="M193.182 60.1037H217.98C219.423 60.0842 220.803 59.5083 221.832 58.4962C222.86 57.4842 223.459 56.114 223.502 54.6715C223.458 53.2463 222.86 51.8944 221.835 50.903C220.811 49.9116 219.44 49.359 218.014 49.3625H187.638C186.744 49.33 185.853 49.4812 185.02 49.8066C184.187 50.1321 183.43 50.625 182.794 51.2549C182.159 51.8847 181.66 52.6381 181.328 53.4685C180.995 54.2989 180.837 55.1887 180.862 56.0828V107.683C180.873 109.334 181.525 110.916 182.681 112.094C183.837 113.273 185.406 113.956 187.056 114C188.701 113.959 190.264 113.274 191.41 112.093C192.555 110.912 193.192 109.329 193.182 107.683V88.0151H213.5C214.211 88.048 214.921 87.9363 215.588 87.6868C216.254 87.4373 216.863 87.0553 217.378 86.5637C217.893 86.0722 218.303 85.4814 218.583 84.827C218.863 84.1726 219.007 83.4683 219.007 82.7565C219.007 82.0448 218.863 81.3404 218.583 80.6861C218.303 80.0317 217.893 79.4409 217.378 78.9493C216.863 78.4578 216.254 78.0758 215.588 77.8263C214.921 77.5768 214.211 77.4651 213.5 77.4979H193.182V60.1037Z" fill="#01121C"/>
<path d="M229.416 71.4498V92.1369C229.416 107.963 237.559 114 246.765 114C256.689 114 262.087 106.496 262.446 103.203V107.784C262.411 108.593 262.54 109.401 262.826 110.16C263.111 110.918 263.547 111.61 264.108 112.196C264.668 112.781 265.341 113.246 266.086 113.564C266.832 113.883 267.633 114.047 268.444 114.047C269.254 114.047 270.056 113.883 270.801 113.564C271.546 113.246 272.219 112.781 272.779 112.196C273.34 111.61 273.776 110.918 274.062 110.16C274.347 109.401 274.476 108.593 274.441 107.784V71.4498C274.375 69.9039 273.714 68.4435 272.596 67.3733C271.479 66.303 269.991 65.7056 268.444 65.7056C266.896 65.7056 265.409 66.303 264.291 67.3733C263.174 68.4435 262.513 69.9039 262.446 71.4498V93.5034C262.087 96.0683 259.343 103.752 251.1 103.752C245.701 103.752 241.4 100.369 241.4 92.1369V71.4498C241.4 69.8605 240.769 68.3364 239.645 67.2127C238.521 66.0889 236.997 65.4576 235.408 65.4576C233.819 65.4576 232.295 66.0889 231.171 67.2127C230.047 68.3364 229.416 69.8605 229.416 71.4498Z" fill="#01121C"/>
<path d="M330.432 87.1863V107.873C330.432 109.463 329.801 110.987 328.677 112.111C327.553 113.234 326.029 113.866 324.44 113.866C322.851 113.866 321.326 113.234 320.203 112.111C319.079 110.987 318.448 109.463 318.448 107.873V87.1863C318.448 78.9876 314.147 75.6275 308.748 75.6275C300.516 75.6275 297.772 83.311 297.402 85.8759V107.873C297.402 109.463 296.771 110.987 295.647 112.111C294.523 113.234 292.999 113.866 291.41 113.866C289.821 113.866 288.296 113.234 287.173 112.111C286.049 110.987 285.418 109.463 285.418 107.873V71.5505C285.418 69.9613 286.049 68.4371 287.173 67.3134C288.296 66.1896 289.821 65.5583 291.41 65.5583C292.999 65.5583 294.523 66.1896 295.647 67.3134C296.771 68.4371 297.402 69.9613 297.402 71.5505V76.1203C297.772 72.8274 303.159 65.3231 313.083 65.3231C322.289 65.3231 330.432 71.3601 330.432 87.1863Z" fill="#01121C"/>
<path d="M378.905 108.149C380.076 107.105 381.674 105.681 381.674 103.203C381.664 102.586 381.531 101.977 381.283 101.411C381.035 100.846 380.677 100.336 380.23 99.9104C379.782 99.4851 379.255 99.153 378.678 98.9337C378.101 98.7144 377.486 98.6122 376.869 98.6331C375.125 98.6868 373.455 99.353 372.154 100.515C370.029 102.374 367.293 103.383 364.47 103.348C357.235 103.348 351.478 98.4203 351.478 89.5384C351.478 80.6565 357.235 75.6275 364.47 75.6275C367.312 75.5968 370.064 76.618 372.198 78.4948C373.48 79.6672 375.134 80.3495 376.869 80.4212C377.485 80.4421 378.099 80.3403 378.675 80.1217C379.252 79.9031 379.779 79.572 380.226 79.1478C380.673 78.7236 381.031 78.2147 381.28 77.6507C381.528 77.0867 381.662 76.4789 381.674 75.8627C381.674 73.3539 380.106 71.9175 378.901 70.8132C378.691 70.6209 378.492 70.4386 378.314 70.2625C374.472 66.8799 369.992 65.2335 364.044 65.2335C352.967 65.2335 339.616 73.2866 339.616 89.572C339.616 105.857 352.967 113.821 364.044 113.821C369.284 114.015 374.397 112.177 378.314 108.691C378.488 108.52 378.689 108.341 378.905 108.149Z" fill="#01121C"/>
<path d="M417.538 107.414C417.538 111.626 413.416 113.821 407.2 113.821C400.983 113.821 394.655 111.805 394.655 99.0923V75.2019H392.001C391.363 75.233 390.725 75.1342 390.127 74.9116C389.528 74.6889 388.981 74.347 388.519 73.9066C388.056 73.4662 387.688 72.9365 387.437 72.3495C387.185 71.7626 387.056 71.1307 387.056 70.4921C387.056 69.8535 387.185 69.2216 387.437 68.6347C387.688 68.0477 388.056 67.518 388.519 67.0776C388.981 66.6372 389.528 66.2953 390.127 66.0726C390.725 65.85 391.363 65.7512 392.001 65.7823H394.655V59.5549C394.67 57.9564 395.312 56.4277 396.443 55.2983C397.575 54.169 399.105 53.5296 400.703 53.5179C402.291 53.5356 403.807 54.1802 404.921 55.3111C406.035 56.442 406.657 57.9674 406.651 59.5549V65.7823H412.71C413.348 65.7512 413.985 65.85 414.584 66.0726C415.182 66.2953 415.73 66.6372 416.192 67.0776C416.654 67.518 417.022 68.0477 417.274 68.6347C417.526 69.2216 417.655 69.8535 417.655 70.4921C417.655 71.1307 417.526 71.7626 417.274 72.3495C417.022 72.9365 416.654 73.4662 416.192 73.9066C415.73 74.347 415.182 74.6889 414.584 74.9116C413.985 75.1342 413.348 75.233 412.71 75.2019H406.673V99.4507C406.673 102.105 407.58 103.483 409.596 103.483C410.102 103.483 410.723 103.39 411.342 103.297C411.958 103.205 412.572 103.113 413.069 103.113C413.661 103.028 414.264 103.079 414.834 103.263C415.403 103.446 415.923 103.757 416.354 104.172C416.785 104.587 417.115 105.094 417.32 105.656C417.526 106.218 417.6 106.819 417.538 107.414Z" fill="#01121C"/>
<path fill-rule="evenodd" clip-rule="evenodd" d="M495.952 89.6616C495.952 106.037 481.951 114 471.512 114C461.074 114 447.084 106.037 447.084 89.6616C447.084 73.2866 460.995 65.2335 471.512 65.2335C482.03 65.2335 495.952 73.3874 495.952 89.6616ZM458.99 89.6616C458.99 98.4427 465.027 103.572 471.524 103.572C478.02 103.572 484.068 98.4427 484.068 89.6616C484.068 80.8804 477.919 75.6275 471.512 75.6275C465.106 75.6275 458.979 80.7908 458.979 89.6616H458.99Z" fill="#01121C"/>
<path d="M550.117 107.873V87.1863C550.117 71.3601 541.963 65.3231 532.756 65.3231C522.844 65.3231 517.445 72.8274 517.076 76.1203V71.5505C517.076 70.7636 516.921 69.9844 516.62 69.2574C516.319 68.5304 515.877 67.8698 515.321 67.3134C514.764 66.7569 514.104 66.3156 513.377 66.0144C512.65 65.7133 511.871 65.5583 511.084 65.5583C510.297 65.5583 509.518 65.7133 508.791 66.0144C508.063 66.3156 507.403 66.7569 506.846 67.3134C506.29 67.8698 505.849 68.5304 505.548 69.2574C505.246 69.9844 505.091 70.7636 505.091 71.5505V107.873C505.091 109.463 505.723 110.987 506.846 112.111C507.97 113.234 509.494 113.866 511.084 113.866C512.673 113.866 514.197 113.234 515.321 112.111C516.445 110.987 517.076 109.463 517.076 107.873V85.8759C517.445 83.311 520.19 75.6275 528.422 75.6275C533.82 75.6275 538.155 78.9876 538.121 87.1863V107.873C538.188 109.419 538.849 110.88 539.967 111.95C541.084 113.02 542.572 113.618 544.119 113.618C545.667 113.618 547.154 113.02 548.272 111.95C549.389 110.88 550.05 109.419 550.117 107.873Z" fill="#01121C"/>
<path d="M567.13 113.821C565.543 113.827 564.017 113.205 562.886 112.091C561.755 110.977 561.111 109.461 561.093 107.873V53.977C561.093 52.3878 561.724 50.8637 562.848 49.7399C563.972 48.6162 565.496 47.9848 567.085 47.9848C568.675 47.9848 570.199 48.6162 571.322 49.7399C572.446 50.8637 573.078 52.3878 573.078 53.977V107.873C573.066 109.447 572.435 110.953 571.323 112.066C570.21 113.179 568.704 113.809 567.13 113.821Z" fill="#01121C"/>
<path fill-rule="evenodd" clip-rule="evenodd" d="M621.856 94.0521C626.706 94.0521 629.36 92.4057 629.36 87.6455C629.36 73.4658 616.726 65.2335 606.298 65.2335C595.871 65.2335 582.24 73.197 582.24 89.6616C582.24 106.317 595.143 113.821 607.306 113.821C612.181 113.965 616.979 112.592 621.038 109.889C623.323 107.963 623.961 106.317 623.961 104.849C623.987 104.302 623.898 103.755 623.7 103.244C623.502 102.733 623.199 102.269 622.811 101.882C622.422 101.495 621.958 101.193 621.446 100.996C620.934 100.799 620.387 100.712 619.84 100.739C618.26 100.903 616.734 101.4 615.36 102.195L615.013 102.345C612.479 103.444 610.917 104.121 607.766 104.121C601.09 104.121 595.804 100.593 594.684 93.8729L621.856 94.0521ZM617.51 85.6406H594.684C595.501 78.5956 601.146 75.6611 606.31 75.6611C611.473 75.6611 616.603 78.5956 617.51 85.6406Z" fill="#01121C"/>
<path d="M669.065 71.909C669.974 73.0606 670.489 74.4744 670.532 75.9411C670.564 76.5532 670.463 77.165 670.238 77.7349C670.012 78.3047 669.667 78.8196 669.225 79.2444C668.783 79.6692 668.255 79.9941 667.677 80.1972C667.099 80.4002 666.483 80.4766 665.873 80.4213C664.89 80.4237 663.92 80.1924 663.044 79.7464C662.167 79.3005 661.41 78.6527 660.833 77.8564C660.046 76.8682 659.044 76.0736 657.902 75.5338C656.76 74.994 655.51 74.7233 654.247 74.7427C650.674 74.7427 648.568 76.49 648.568 79.0437C648.568 80.5109 649.128 82.4038 653.329 83.6246L658.929 85.2711C666.243 87.2872 672.369 90.7593 672.369 98.902C672.369 108.982 663.028 113.821 653.519 113.821C645.275 113.821 640.336 110.338 637.838 107.235C637.801 107.182 637.752 107.117 637.695 107.042L637.627 106.952C636.947 106.059 635.363 103.979 635.363 101.467C635.34 100.866 635.44 100.266 635.658 99.7057C635.876 99.1451 636.207 98.6352 636.63 98.2078C637.054 97.7804 637.56 97.4444 638.119 97.2209C638.677 96.9974 639.276 96.891 639.877 96.9083C642.352 96.9083 643.73 98.4651 644.827 99.8428C645.827 101.194 647.141 102.282 648.655 103.012C650.169 103.742 651.839 104.092 653.519 104.032C657.999 104.032 660.474 102.105 660.474 99.5516C660.474 98.0059 659.466 95.9898 655.076 94.7018L649.856 93.145C640.616 90.5913 636.774 85.6519 636.774 79.1556C636.774 70.0049 645.186 65.2448 653.877 65.2448C660.105 65.2336 666.052 67.6977 669.065 71.909Z" fill="#01121C"/>
<path d="M713.99 75.9411C713.944 74.4766 713.434 73.0646 712.534 71.9089C709.521 67.6975 703.562 65.2335 697.335 65.2671C688.643 65.2671 680.232 70.0272 680.232 79.178C680.232 85.6742 684.074 90.6136 693.314 93.1673L698.533 94.7241C702.924 96.0122 703.932 98.0283 703.932 99.5739C703.932 102.128 701.457 104.054 696.976 104.054C695.295 104.11 693.625 103.756 692.111 103.022C690.596 102.288 689.283 101.197 688.285 99.8427C687.187 98.4651 685.81 96.9082 683.346 96.9082C682.744 96.891 682.145 96.9973 681.586 97.2208C681.027 97.4442 680.52 97.7799 680.095 98.2072C679.671 98.6345 679.339 99.1442 679.12 99.7048C678.901 100.265 678.799 100.865 678.821 101.467C678.821 103.979 680.405 106.059 681.084 106.952C681.172 107.066 681.244 107.161 681.296 107.235C683.794 110.337 688.744 113.821 696.976 113.821C706.486 113.821 715.827 108.982 715.827 98.9019C715.827 90.7592 709.7 87.2871 702.386 85.271L696.786 83.6245C692.586 82.4037 692.037 80.5108 692.037 79.0436C692.037 76.4899 694.143 74.7426 697.704 74.7426C698.967 74.7232 700.218 74.9938 701.359 75.5337C702.501 76.0735 703.504 76.8681 704.29 77.8563C704.868 78.6519 705.626 79.2993 706.502 79.7451C707.378 80.191 708.347 80.4227 709.331 80.4212C709.941 80.4785 710.557 80.4034 711.136 80.201C711.716 79.9986 712.244 79.6738 712.687 79.2486C713.129 78.8233 713.474 78.3077 713.699 77.737C713.924 77.1662 714.023 76.5536 713.99 75.9411Z" fill="#01121C"/>
</svg>
