<svg width="25" height="24" viewBox="0 0 25 24" fill="none" xmlns="http://www.w3.org/2000/svg">
<path d="M19.9308 5.26879C18.6561 4.68152 17.2892 4.24883 15.8599 4.00105C15.8339 3.99625 15.8079 4.00821 15.7945 4.0321C15.6187 4.34606 15.4239 4.75563 15.2876 5.07752C13.7503 4.84646 12.221 4.84646 10.7153 5.07752C10.5789 4.74846 10.377 4.34606 10.2005 4.0321C10.187 4.00901 10.161 3.99705 10.135 4.00105C8.70657 4.24806 7.33963 4.68072 6.0641 5.26879C6.05305 5.27356 6.04359 5.28152 6.0373 5.29188C3.4445 9.18116 2.73421 12.9749 3.08265 16.7215C3.08421 16.7398 3.09447 16.7574 3.10865 16.7685C4.81934 18.0299 6.47643 18.7956 8.10272 19.3032C8.12876 19.3112 8.15632 19.3016 8.1729 19.2801C8.55759 18.7526 8.90054 18.1964 9.19454 17.6116C9.21192 17.5773 9.19534 17.5366 9.15988 17.5231C8.61592 17.3159 8.09799 17.0633 7.59977 16.7765C7.56036 16.7534 7.55719 16.6968 7.59345 16.6697C7.69832 16.5908 7.80319 16.5088 7.9033 16.4259C7.92141 16.4108 7.94665 16.4076 7.96792 16.4171C11.241 17.9176 14.7846 17.9176 18.0191 16.4171C18.0404 16.4068 18.0657 16.41 18.0846 16.4251C18.1847 16.508 18.2896 16.5908 18.3952 16.6697C18.4314 16.6968 18.429 16.7534 18.3897 16.7765C17.8914 17.0689 17.3735 17.3159 16.8288 17.5223C16.7933 17.5358 16.7775 17.5773 16.7949 17.6116C17.0952 18.1956 17.4381 18.7518 17.8157 19.2793C17.8315 19.3016 17.8599 19.3112 17.8859 19.3032C19.5201 18.7956 21.1772 18.0299 22.8878 16.7685C22.9028 16.7574 22.9123 16.7406 22.9139 16.7223C23.3309 12.3908 22.2154 8.62817 19.9568 5.29268C19.9513 5.28152 19.9419 5.27356 19.9308 5.26879ZM9.68334 14.4402C8.69792 14.4402 7.88592 13.5318 7.88592 12.4163C7.88592 11.3007 8.68218 10.3924 9.68334 10.3924C10.6924 10.3924 11.4965 11.3087 11.4807 12.4163C11.4807 13.5318 10.6845 14.4402 9.68334 14.4402ZM16.3289 14.4402C15.3436 14.4402 14.5316 13.5318 14.5316 12.4163C14.5316 11.3007 15.3278 10.3924 16.3289 10.3924C17.338 10.3924 18.1421 11.3087 18.1264 12.4163C18.1264 13.5318 17.338 14.4402 16.3289 14.4402Z" fill="#FFFFFF"/>
</svg>
