<svg width="192" height="192" viewBox="0 0 192 192" fill="none" xmlns="http://www.w3.org/2000/svg">
<path d="M134.456 105.249L114.346 125.329C117.964 124.32 121.455 122.901 124.751 121.1C125.714 121.697 126.536 122.496 127.161 123.442C127.786 124.387 128.199 125.456 128.371 126.576C128.371 132.144 116.567 138.199 99.0423 140.663C93.6365 141.394 88.1897 141.78 82.7348 141.819H79.6924C55.1095 141.241 37.0983 133.483 37.0983 126.607C37.2707 125.487 37.6836 124.417 38.3085 123.472C38.9335 122.527 39.7558 121.728 40.7188 121.131C50.2721 126.455 65.758 129.619 82.7348 129.619H83.0695L84.7732 123.534C84.1039 123.534 83.4346 123.534 82.7348 123.534C66.0014 123.534 50.485 120.218 42.24 114.985C38.9542 112.825 37.1287 110.482 37.0983 108.444V94.3571C46.4082 101.476 64.967 105.188 82.7348 105.188C85.1383 105.188 87.5419 105.188 89.8845 104.975L91.6187 98.8903C88.5763 99.1033 85.7468 99.1946 82.7348 99.1946C56.6307 99.1946 37.0983 91.193 37.0983 83.9824C37.2707 82.8623 37.6836 81.7929 38.3085 80.8475C38.9335 79.9022 39.7558 79.1034 40.7188 78.506C49.1159 83.2218 62.0158 86.1729 76.6499 86.8423L76.8021 80.7574C62.4114 80.0577 49.4202 76.9544 42.24 72.3603C38.9846 70.261 37.1592 67.8879 37.0983 65.8191V51.763C46.4082 58.8823 64.967 62.5941 82.7348 62.5941H83.4042L86.6291 56.5092H82.7348C56.6307 56.5092 37.0983 48.5076 37.0983 41.297C37.0983 34.0865 56.6307 26.0849 82.7348 26.0849C91.5268 26.0476 100.291 27.0691 108.839 29.1273H125.542C116.415 23.5596 100.655 20 82.7348 20C57.6652 20 31.0134 27.4235 31.0134 41.297V65.7886C31.1049 67.5236 31.5614 69.2197 32.353 70.7663C33.1447 72.3129 34.2536 73.675 35.6075 74.7638C34.2364 75.8707 33.1173 77.2575 32.3251 78.8315C31.5329 80.4055 31.0857 82.1305 31.0134 83.8911V108.231C31.0837 109.992 31.53 111.717 32.3224 113.292C33.1148 114.866 34.2349 116.252 35.6075 117.358C34.2364 118.465 33.1173 119.852 32.3251 121.426C31.5329 123 31.0857 124.725 31.0134 126.485V150.825C30.9955 151.037 30.9955 151.251 31.0134 151.464C31.8349 164.82 57.9998 172 82.7348 172C107.47 172 133.635 164.82 134.456 151.403C134.486 151.191 134.486 150.976 134.456 150.764V126.424C134.398 124.661 133.957 122.931 133.164 121.355C132.37 119.779 131.244 118.394 129.862 117.297C131.235 116.191 132.355 114.805 133.147 113.231C133.94 111.656 134.386 109.931 134.456 108.17V105.249ZM128.371 150.886C128.371 158.066 108.839 166.098 82.7348 166.098C56.6307 166.098 37.0983 158.157 37.0983 150.886V136.89C46.4082 143.949 64.967 147.661 82.7348 147.661C100.503 147.661 119.061 143.949 128.371 136.89V150.886Z" fill="white"/>
<path d="M46.2249 69.6226C48.3253 69.6226 50.028 67.92 50.028 65.8196C50.028 63.7192 48.3253 62.0166 46.2249 62.0166C44.1246 62.0166 42.4219 63.7192 42.4219 65.8196C42.4219 67.92 44.1246 69.6226 46.2249 69.6226Z" fill="white"/>
<path d="M46.2249 112.216C48.3253 112.216 50.028 110.514 50.028 108.413C50.028 106.313 48.3253 104.61 46.2249 104.61C44.1246 104.61 42.4219 106.313 42.4219 108.413C42.4219 110.514 44.1246 112.216 46.2249 112.216Z" fill="white"/>
<path d="M46.2249 154.81C48.3253 154.81 50.028 153.107 50.028 151.007C50.028 148.907 48.3253 147.204 46.2249 147.204C44.1246 147.204 42.4219 148.907 42.4219 151.007C42.4219 153.107 44.1246 154.81 46.2249 154.81Z" fill="white"/>
<path d="M90.3405 138.716C89.8048 138.711 89.28 138.564 88.8193 138.29C88.2269 137.949 87.7666 137.418 87.5127 136.784C87.2588 136.149 87.2261 135.447 87.4198 134.791L104.518 77.8675H87.2981C86.7667 77.8743 86.2428 77.7417 85.7785 77.4831C85.3142 77.2244 84.9258 76.8486 84.6519 76.3932C84.378 75.9377 84.2282 75.4185 84.2174 74.8871C84.2066 74.3558 84.3352 73.8309 84.5903 73.3647L102.845 36.8555C103.098 36.3537 103.485 35.9318 103.963 35.6364C104.44 35.3411 104.991 35.1838 105.553 35.1821H145.104C145.597 35.1576 146.089 35.2534 146.536 35.4611C146.984 35.6689 147.374 35.9825 147.674 36.3747C147.973 36.767 148.173 37.2262 148.255 37.7128C148.338 38.1994 148.3 38.6987 148.147 39.1677L140.358 62.564H157.426C158.021 62.5663 158.602 62.7427 159.097 63.0715C159.592 63.4003 159.981 63.867 160.214 64.414C160.447 64.961 160.514 65.5642 160.408 66.1493C160.302 66.7343 160.027 67.2754 159.617 67.7057L92.6832 137.682C92.3914 138.014 92.0306 138.279 91.626 138.457C91.2214 138.636 90.7827 138.724 90.3405 138.716ZM92.2268 71.7826H108.595C109.067 71.7826 109.533 71.8926 109.956 72.1038C110.378 72.315 110.746 72.6217 111.029 72.9996C111.312 73.3774 111.504 73.8161 111.589 74.2808C111.673 74.7455 111.648 75.2235 111.516 75.6769L96.8818 124.356L150.155 68.6793H135.977C135.481 68.7057 134.985 68.61 134.534 68.4007C134.083 68.1913 133.691 67.8746 133.391 67.4784C133.09 67.0821 132.892 66.6183 132.812 66.1276C132.733 65.6368 132.775 65.1341 132.935 64.6633L140.723 41.2974H107.256L92.2268 71.7826Z" fill="url(#paint0_linear_2039_36622)"/>
<defs>
<linearGradient id="paint0_linear_2039_36622" x1="84.2168" y1="86.9486" x2="160.457" y2="86.9486" gradientUnits="userSpaceOnUse">
<stop stop-color="#32B7FF"/>
<stop offset="0.333333" stop-color="#B986FF"/>
<stop offset="0.666667" stop-color="#14CC92"/>
<stop offset="1" stop-color="#FFBC42"/>
</linearGradient>
</defs>
</svg>
