<svg width="192" height="192" viewBox="0 0 192 192" fill="none" xmlns="http://www.w3.org/2000/svg">
<path d="M144.078 134.102V136.437C144.078 136.156 144.078 135.874 144.078 135.593C144.021 135.098 144.021 134.597 144.078 134.102Z" fill="white"/>
<path d="M107.135 78.0503L106.854 78.5849C106.966 78.4114 107.052 78.2216 107.107 78.0222L107.135 78.0503Z" fill="white"/>
<path d="M82.7385 68.287C80.2342 68.287 58.1179 68.09 58.1179 76.4469C58.1082 76.9763 58.2038 77.5024 58.3992 77.9945C58.4815 78.1968 58.5754 78.3941 58.6806 78.5854L73.9876 112.351V129.824C73.9876 131.597 74.7192 132.638 76.2668 132.638H76.9984C80.5358 131.712 83.8229 130.011 86.6215 127.658L88.5068 126.335C88.9082 126.084 89.2399 125.736 89.4711 125.323C89.7022 124.91 89.8254 124.445 89.8292 123.972V112.435L106.853 78.6698C106.965 78.4963 107.051 78.3065 107.106 78.1071C107.301 77.615 107.397 77.0889 107.387 76.5595C107.387 68.09 85.2709 68.287 82.7385 68.287ZM82.7385 73.4643C92.6712 73.4643 99.0585 75.2089 101.197 76.4469C99.0585 77.685 92.7556 79.4296 82.7385 79.4296C72.7214 79.4296 66.4467 77.685 64.3082 76.4469C66.4748 75.237 72.8058 73.4643 82.7385 73.4643ZM84.7925 110.044C84.7925 110.437 84.7925 111.141 84.7925 111.873V122.874L83.6952 123.55C82.0913 124.478 80.6844 125.125 79.0806 125.97V111.816C79.0738 111.431 78.9976 111.049 78.8555 110.691L66.8687 83.2844C72.0788 84.4452 77.4007 85.0302 82.7385 85.029C87.9212 85.025 93.0893 84.478 98.158 83.397L84.7925 110.044Z" fill="url(#paint0_linear_2039_36567)"/>
<path d="M134.006 146.06C122.991 154.032 109.729 158.298 96.1323 158.244C65.5183 158.244 39.4063 138.35 33.2723 109.002C36.0351 108.871 38.6793 107.84 40.8024 106.068C42.9256 104.295 44.4115 101.877 45.0339 99.1822H59.3842V93.8641H45.0902C44.5474 91.0973 43.0948 88.5916 40.9634 86.7458C38.832 84.9 36.1445 83.8202 33.3285 83.6782C35.837 73.505 40.778 64.093 47.7271 56.2509C54.6761 48.4089 63.4253 42.3714 73.2228 38.6572C83.0203 34.943 93.5731 33.6632 103.974 34.9278C114.376 36.1924 124.315 39.9635 132.937 45.9172L136.144 41.4714C126.601 34.8772 115.575 30.7454 104.048 29.4441C92.5207 28.1427 80.8509 29.7122 70.0774 34.0127C59.3038 38.3132 49.761 45.2112 42.2987 54.0926C34.8365 62.9739 29.6863 73.5628 27.307 84.9163C25.1249 85.9272 23.2774 87.5412 21.9827 89.5679C20.688 91.5946 20 93.9494 20 96.3543C20 98.7593 20.688 101.114 21.9827 103.141C23.2774 105.167 25.1249 106.781 27.307 107.792C30.5863 123.626 39.2202 137.847 51.7556 148.061C64.2911 158.274 79.9626 163.858 96.1323 163.871C110.864 163.9 125.227 159.261 137.157 150.618L134.006 146.06ZM25.675 96.3403C25.6626 94.612 26.2867 92.9397 27.4285 91.6423C28.5702 90.3448 30.1496 89.5131 31.8654 89.3058H32.7095C34.102 89.3002 35.4648 89.708 36.6253 90.4776C37.7858 91.2472 38.6918 92.3438 39.2285 93.6287C39.7653 94.9136 39.9086 96.3289 39.6404 97.6953C39.3721 99.0617 38.7044 100.318 37.7217 101.304C36.7391 102.291 35.4857 102.964 34.1204 103.237C32.7551 103.511 31.3392 103.373 30.0522 102.842C28.7652 102.31 27.6649 101.409 26.8907 100.251C26.1165 99.0939 25.7032 97.7327 25.7032 96.3403H25.675Z" fill="white"/>
<path d="M159.329 109.002C161.721 109.004 164.065 108.328 166.089 107.052C168.113 105.776 169.734 103.953 170.764 101.793C171.795 99.6341 172.192 97.227 171.911 94.8511C171.629 92.4752 170.681 90.2276 169.174 88.3688C167.668 86.5099 165.666 85.1159 163.4 84.3481C161.134 83.5803 158.697 83.4702 156.371 84.0306C154.045 84.591 151.925 85.7989 150.258 87.5143C148.59 89.2298 147.442 91.3827 146.948 93.7236H132.316V58.917H139.913C140.325 62.0513 141.893 64.9184 144.311 66.9548C146.729 68.9911 149.821 70.0495 152.979 69.9219C156.138 69.7942 159.134 68.4898 161.38 66.2649C163.625 64.0401 164.958 61.0558 165.114 57.8986C165.271 54.7414 164.242 51.6397 162.228 49.2032C160.214 46.7667 157.361 45.1716 154.231 44.7315C151.101 44.2913 147.919 45.038 145.311 46.8247C142.704 48.6113 140.858 51.3088 140.139 54.3868L129.784 54.2462C129.428 54.1703 129.059 54.1789 128.706 54.2711C128.354 54.3633 128.028 54.5366 127.755 54.7772C127.481 55.0178 127.268 55.3189 127.132 55.6567C126.996 55.9944 126.94 56.3593 126.97 56.7223V93.6392H105.332V98.8447H126.97V135.649C126.97 136.395 127.266 137.111 127.794 137.639C128.322 138.166 129.038 138.463 129.784 138.463H138.619C139.237 141.543 140.978 144.284 143.503 146.152C146.029 148.02 149.159 148.883 152.285 148.573C155.411 148.262 158.31 146.801 160.419 144.472C162.528 142.144 163.696 139.114 163.696 135.973C163.696 132.831 162.528 129.802 160.419 127.473C158.31 125.144 155.411 123.683 152.285 123.373C149.159 123.062 146.029 123.925 143.503 125.793C140.978 127.662 139.237 130.402 138.619 133.482H132.485L132.344 98.8166H146.948C147.524 101.68 149.071 104.257 151.326 106.112C153.581 107.968 156.408 108.989 159.329 109.002ZM159.329 89.3059C160.72 89.3059 162.08 89.7185 163.237 90.4915C164.394 91.2644 165.295 92.3631 165.828 93.6484C166.36 94.9338 166.499 96.3482 166.228 97.7128C165.956 99.0773 165.287 100.331 164.303 101.315C163.319 102.298 162.066 102.968 160.701 103.24C159.336 103.511 157.922 103.372 156.637 102.839C155.351 102.307 154.253 101.405 153.48 100.249C152.707 99.0917 152.294 97.7317 152.294 96.3404C152.294 94.4748 153.035 92.6855 154.354 91.3663C155.674 90.0471 157.463 89.3059 159.329 89.3059ZM152.294 50.1662C153.681 50.1718 155.035 50.5889 156.185 51.3646C157.334 52.1404 158.228 53.2399 158.752 54.5239C159.276 55.8079 159.408 57.2186 159.13 58.5773C158.852 59.9361 158.177 61.1817 157.19 62.1565C156.203 63.1312 154.95 63.7912 153.588 64.0529C152.226 64.3146 150.817 64.1662 149.539 63.6264C148.262 63.0867 147.173 62.1799 146.411 61.021C145.649 59.862 145.249 58.5031 145.26 57.1162C145.26 56.1914 145.443 55.2757 145.798 54.4219C146.154 53.5682 146.675 52.7933 147.332 52.142C147.988 51.4906 148.767 50.9757 149.624 50.627C150.48 50.2782 151.397 50.1025 152.322 50.1099L152.294 50.1662ZM150.887 128.699C152.243 128.693 153.571 129.079 154.712 129.81C155.853 130.541 156.759 131.587 157.32 132.82C157.882 134.054 158.074 135.423 157.876 136.764C157.677 138.105 157.096 139.36 156.201 140.378C155.306 141.396 154.136 142.133 152.832 142.502C151.528 142.871 150.145 142.855 148.849 142.457C147.554 142.059 146.401 141.294 145.53 140.256C144.658 139.218 144.105 137.951 143.937 136.606C143.937 136.324 143.937 136.043 143.937 135.762C143.936 135.26 143.993 134.759 144.106 134.27C144.442 132.713 145.295 131.315 146.526 130.303C147.757 129.292 149.294 128.727 150.887 128.699Z" fill="white"/>
<defs>
<linearGradient id="paint0_linear_2039_36567" x1="58.1172" y1="100.463" x2="107.388" y2="100.463" gradientUnits="userSpaceOnUse">
<stop stop-color="#32B7FF"/>
<stop offset="0.333333" stop-color="#B986FF"/>
<stop offset="0.666667" stop-color="#14CC92"/>
<stop offset="1" stop-color="#FFBC42"/>
</linearGradient>
</defs>
</svg>
