<?xml version="1.0" standalone="no"?>
<!DOCTYPE svg PUBLIC "-//W3C//DTD SVG 20010904//EN"
 "http://www.w3.org/TR/2001/REC-SVG-20010904/DTD/svg10.dtd">
<svg version="1.0" xmlns="http://www.w3.org/2000/svg"
 width="512.000000pt" height="512.000000pt" viewBox="0 0 512.000000 512.000000"
 preserveAspectRatio="xMidYMid meet">

<g transform="translate(0.000000,512.000000) scale(0.100000,-0.100000)"
fill="#000000" stroke="none">
<path d="M325 4171 c-38 -9 -70 -21 -69 -27 1 -5 20 -78 44 -162 30 -108 47
-152 56 -148 42 16 178 26 234 17 153 -25 237 -126 350 -420 l50 -131 -430
-1167 c-236 -641 -430 -1170 -430 -1175 0 -7 390 -13 390 -5 0 1 144 416 319
922 235 680 322 921 335 923 9 2 16 2 16 -1 0 -16 526 -1503 548 -1551 89
-186 230 -292 425 -319 72 -10 208 0 224 17 3 3 -12 75 -33 160 l-38 154 -82
4 c-75 3 -86 6 -112 31 -17 16 -42 56 -57 89 -15 32 -210 555 -434 1161 -225
606 -423 1137 -440 1179 -103 246 -279 407 -497 453 -94 20 -280 18 -369 -4z"/>
<path d="M3992 2837 l-1002 -512 2 -123 3 -124 999 -509 c550 -280 1001 -509
1003 -509 2 0 2 89 1 197 l-3 197 -760 366 c-438 211 -761 373 -763 381 -2 11
221 122 763 383 l765 369 0 199 c0 109 -1 198 -2 197 -2 -1 -454 -231 -1006
-512z"/>
</g>
</svg>
