<?xml version="1.0" encoding="UTF-8" standalone="no"?>
<!-- Creator: CorelDRAW -->

<svg
   xml:space="preserve"
   width="1.80296in"
   height="1.5475701in"
   version="1.1"
   style="shape-rendering:geometricPrecision; text-rendering:geometricPrecision; image-rendering:optimizeQuality; fill-rule:evenodd; clip-rule:evenodd"
   viewBox="0 0 1802.96 1547.5701"
   id="svg11"
   sodipodi:docname="Logo.svg"
   inkscape:export-filename="\\wsl.localhost\Ubuntu\home\sussmans\functionless\website\static\img\logo.png"
   inkscape:export-xdpi="129.23486"
   inkscape:export-ydpi="129.23486"
   inkscape:version="1.1 (c68e22c387, 2021-05-23)"
   xmlns:inkscape="http://www.inkscape.org/namespaces/inkscape"
   xmlns:sodipodi="http://sodipodi.sourceforge.net/DTD/sodipodi-0.dtd"
   xmlns="http://www.w3.org/2000/svg"
   xmlns:svg="http://www.w3.org/2000/svg"><sodipodi:namedview
   id="namedview13"
   pagecolor="#ffffff"
   bordercolor="#666666"
   borderopacity="1.0"
   inkscape:pageshadow="2"
   inkscape:pageopacity="0.0"
   inkscape:pagecheckerboard="0"
   inkscape:document-units="in"
   showgrid="false"
   inkscape:zoom="5.0684295"
   inkscape:cx="43.110001"
   inkscape:cy="74.382015"
   inkscape:window-width="2880"
   inkscape:window-height="1796"
   inkscape:window-x="-12"
   inkscape:window-y="-12"
   inkscape:window-maximized="1"
   inkscape:current-layer="svg11" />
 <defs
   id="defs4">
  <style
   type="text/css"
   id="style2">
   <![CDATA[
    .fil0 {fill:black}
    .fil2 {fill:#3ecc5f}
   ]]>
  </style>
 </defs>
 <g
   id="Layer_x0020_1"
   transform="translate(-1.8049)">
  <g
   id="_3WF"
   transform="translate(-1979.1651)">
   <path
   class="fil2"
   d="M 3284.83,793.64 3126.64,492.4 c 31.54,-59.69 63.07,-119.38 94.57,-179.09 l 67.46,-127.86 h 102.89 l -89.87,170.33 c -24.05,45.59 -48.13,91.17 -72.2,136.75 52.7,100.37 167.4135,324.27517 220.1235,424.64517 l -102.7818,-2e-5 z"
   id="path43" />
   <path
   class="fil0"
   d="m 2882.77,1157.02 c -43.73,82.84 -87.46,165.68 -131.17,248.53 l -74.94,142.02 h -160.6 -94.84 -440.25 l 204.4,-389.93 C 2364.61,815.7 2540.01,471.74 2719.81,130.08 L 2788.27,0 3259.5793,0.10921291 3203.8658,91.516114 2842.81,91.75 l -42.48,80.71 c -179.78,341.61 -355.15,685.52 -534.37,1027.42 l -134.55,256.69 h 289.8 94.84 105.72 l 49.33,-93.49 c 70.4,-133.42 140.83,-266.82 211.26,-400.22 71.25,133.64 142.5,267.27 213.76,400.9 l 49.49,92.81 h 105.21 92.25 290.19 L 3498.19,1199.7 c -33.26,-63.26 -66.51,-126.52 -99.76,-189.78 h 102.8 l 77.5,147.43 205.2,390.22 h -440.85 -92.25 -159.81 l -75.18,-140.99 c -44.36,-83.19 -88.72,-166.37 -133.07,-249.56 z"
   id="path45" />
   <path
   class="fil0"
   d="m 2881.98,768.68 c 98.14,184.09 196.3,368.18 294.46,552.26 l 23.8,44.63 h 50.6 92.24 139.52 l -64.95,-123.51 C 3286.26,992.19 3155.04,742.23 3023.78,492.28 c 38.99,-73.8 77.99,-147.6 116.94,-221.43 l 44.681,-87.67177 -288.051,0.32177 -16.5,31.35 c -179.76,341.57 -355.11,685.43 -534.3,1027.29 l -64.7,123.43 h 139.36 94.84 50.85 l 23.72,-44.96 c 97.09,-183.99 194.24,-367.96 291.35,-551.93 z"
   id="path47" />
  </g>
 </g>
</svg>
