<svg width="150" height="160" viewBox="0 0 150 160" fill="none" xmlns="http://www.w3.org/2000/svg">
<path d="M106.68 120.154C103.256 116.73 98.6128 114.806 93.7708 114.806C88.9308 114.809 84.29 116.734 80.8687 120.158C77.4473 123.581 75.5254 128.223 75.5254 133.063C75.5254 135.46 75.9976 137.835 76.9151 140.049C77.8326 142.264 79.1774 144.277 80.8727 145.972C82.5679 147.668 84.5805 149.012 86.7955 149.93C89.0105 150.847 91.3845 151.32 93.782 151.32C97.4569 151.317 101.017 150.207 104.016 148.174L112.027 160V133.163C112.027 133.13 112.027 133.096 112.027 133.063C112.027 128.221 110.104 123.577 106.68 120.154Z" fill="white"/>
<path d="M131.039 0.00564303H54.8763C50.0358 -0.114663 45.3458 1.69283 41.838 5.03049C38.3302 8.36816 36.292 12.9626 36.1717 17.8031C36.0514 22.6435 37.8588 27.3336 41.1965 30.8414C44.5342 34.3492 49.1286 36.3874 53.9691 36.5077C54.2752 36.5077 54.5776 36.5077 54.8763 36.5077H131.039C133.436 36.5673 135.821 36.1542 138.058 35.292C140.295 34.4299 142.34 33.1355 144.077 31.4829C145.814 29.8302 147.209 27.8517 148.181 25.6601C149.153 23.4686 149.684 21.1071 149.744 18.7103C149.803 16.3135 149.39 13.9285 148.528 11.6914C147.666 9.45428 146.371 7.40889 144.719 5.672C143.066 3.93512 141.088 2.54075 138.896 1.56851C136.705 0.596277 134.343 0.0652127 131.946 0.00564303H131.039Z" fill="white"/>
<path fill-rule="evenodd" clip-rule="evenodd" d="M125.395 6.05967C124.548 6.90698 124.548 8.28074 125.395 9.12804L133.986 17.719L125.395 26.3099C124.548 27.1572 124.548 28.5309 125.395 29.3782C126.243 30.2255 127.616 30.2255 128.464 29.3782L138.589 19.2531C139.436 18.4058 139.436 17.0321 138.589 16.1848L128.464 6.05967C127.616 5.21237 126.243 5.21237 125.395 6.05967Z" fill="white"/>
<path d="M94.873 57.8633H18.7103C13.8698 57.743 9.17981 59.5505 5.672 62.8882C2.1642 66.2258 0.125949 70.8203 0.00564303 75.6607C-0.114663 80.5012 1.69283 85.1912 5.03049 88.699C8.36816 92.2068 12.9626 94.2451 17.8031 94.3654C18.1092 94.3654 18.4116 94.3654 18.7103 94.3654H94.873C97.2697 94.425 99.6548 94.0119 101.892 93.1497C104.129 92.2875 106.174 90.9932 107.911 89.3405C109.648 87.6879 111.043 85.7093 112.015 83.5178C112.987 81.3263 113.518 78.9647 113.578 76.568C113.637 74.1712 113.224 71.7862 112.362 69.5491C111.5 67.312 110.205 65.2666 108.553 63.5297C106.9 61.7928 104.922 60.3984 102.73 59.4262C100.539 58.4539 98.177 57.9229 95.7802 57.8633H94.873Z" fill="#32B7FF"/>
<path fill-rule="evenodd" clip-rule="evenodd" d="M24.677 64.8077C25.5243 65.655 25.5243 67.0288 24.677 67.8761L16.0861 76.467L24.677 85.0579C25.5243 85.9052 25.5243 87.279 24.677 88.1263C23.8297 88.9736 22.456 88.9736 21.6087 88.1263L11.4836 78.0012C10.6363 77.1539 10.6363 75.7801 11.4836 74.9328L21.6087 64.8077C22.456 63.9604 23.8297 63.9604 24.677 64.8077Z" fill="#01121C"/>
</svg>
