<svg width="100" height="135" viewBox="0 0 100 135" fill="none" xmlns="http://www.w3.org/2000/svg">
<path d="M75.0406 69.8448V71.0609C75.0406 70.9146 75.0406 70.7677 75.0406 70.6213C75.0109 70.3635 75.0109 70.1026 75.0406 69.8448Z" fill="white"/>
<path d="M55.7995 40.6512L55.6531 40.9296C55.7115 40.8393 55.7563 40.7404 55.7849 40.6366L55.7995 40.6512Z" fill="white"/>
<path d="M43.093 35.5662C41.7887 35.5662 30.2697 35.4636 30.2697 39.8161C30.2647 40.0918 30.3145 40.3658 30.4163 40.6221C30.4591 40.7275 30.508 40.8303 30.5628 40.9299L38.5352 58.5162V67.6167C38.5352 68.5401 38.9163 69.0823 39.7223 69.0823H40.1033C41.9457 68.6 43.6578 67.7141 45.1154 66.4885L46.0973 65.7995C46.3064 65.6688 46.4791 65.4875 46.5995 65.2724C46.7199 65.0573 46.7841 64.8151 46.786 64.5688V58.5599L55.6526 40.9739C55.7109 40.8835 55.7557 40.7846 55.7844 40.6808C55.8859 40.4245 55.9359 40.1505 55.9307 39.8747C55.9307 35.4636 44.4119 35.5662 43.093 35.5662ZM43.093 38.2627C48.2663 38.2627 51.593 39.1713 52.7068 39.8161C51.593 40.4609 48.3102 41.3696 43.093 41.3696C37.8757 41.3696 34.6077 40.4609 33.4939 39.8161C34.6223 39.1859 37.9197 38.2627 43.093 38.2627ZM44.1628 57.3146C44.1628 57.5193 44.1628 57.8859 44.1628 58.2672V63.9969L43.5913 64.349C42.7559 64.8323 42.0231 65.1693 41.1878 65.6094V58.2375C41.1843 58.037 41.1446 57.838 41.0706 57.6516L34.8274 43.3773C37.541 43.9819 40.3129 44.2866 43.093 44.2859C45.7923 44.2839 48.484 43.999 51.124 43.4359L44.1628 57.3146Z" fill="url(#paint0_linear_2_79)"/>
<path d="M69.7948 76.0729C64.0578 80.225 57.1505 82.4469 50.0689 82.4187C34.1241 82.4187 20.5241 72.0573 17.3293 56.7719C18.7683 56.7036 20.1455 56.1667 21.2512 55.2437C22.3571 54.3203 23.131 53.0609 23.4552 51.6574H30.9293V48.8875H23.4845C23.2018 47.4465 22.4452 46.1414 21.3351 45.1801C20.225 44.2187 18.8253 43.6563 17.3586 43.5824C18.6651 38.2838 21.2385 33.3818 24.8579 29.2973C28.4771 25.213 33.034 22.0684 38.1369 20.1339C43.2397 18.1995 48.736 17.5329 54.1531 18.1915C59.5708 18.8502 64.7474 20.8143 69.238 23.9152L70.9083 21.5997C65.938 18.1652 60.1953 16.0132 54.1917 15.3355C48.1879 14.6576 42.1098 15.4751 36.4986 17.7149C30.8874 19.9548 25.9172 23.5475 22.0306 28.1732C18.144 32.7989 15.4616 38.3139 14.2224 44.2272C13.0859 44.7537 12.1236 45.5944 11.4493 46.6499C10.775 47.7055 10.4167 48.932 10.4167 50.1845C10.4167 51.4371 10.775 52.6635 11.4493 53.7193C12.1236 54.7745 13.0859 55.6151 14.2224 56.1417C15.9304 64.3885 20.4272 71.7953 26.956 77.1151C33.4849 82.4344 41.6472 85.3427 50.0689 85.3495C57.7417 85.3646 65.2224 82.9484 71.4359 78.4469L69.7948 76.0729ZM13.3724 50.1772C13.3659 49.2771 13.691 48.4061 14.2857 47.7304C14.8803 47.0546 15.7029 46.6214 16.5966 46.5134H17.0362C17.7615 46.5105 18.4712 46.7229 19.0757 47.1237C19.6801 47.5246 20.152 48.0957 20.4315 48.7649C20.7111 49.4342 20.7857 50.1713 20.646 50.883C20.5063 51.5946 20.1585 52.2489 19.6467 52.7625C19.1349 53.2765 18.4821 53.6271 17.771 53.7693C17.0599 53.912 16.3225 53.8401 15.6522 53.5635C14.9819 53.2864 14.4088 52.8172 14.0056 52.214C13.6023 51.6114 13.3871 50.9024 13.3871 50.1772H13.3724Z" fill="white"/>
<path d="M82.9838 56.7719C84.2297 56.7729 85.4505 56.4209 86.5047 55.7563C87.5589 55.0917 88.4031 54.1422 88.9396 53.0172C89.4766 51.8928 89.6833 50.6391 89.537 49.4016C89.3901 48.1642 88.8964 46.9936 88.1115 46.0254C87.3271 45.0573 86.2844 44.3312 85.1042 43.9313C83.924 43.5314 82.6547 43.4741 81.4432 43.766C80.2318 44.0578 79.1276 44.6869 78.2594 45.5804C77.3906 46.4739 76.7927 47.5952 76.5354 48.8144H68.9146V30.686H72.8713C73.0859 32.3184 73.9026 33.8117 75.162 34.8723C76.4214 35.9329 78.0318 36.4841 79.6766 36.4177C81.3219 36.3512 82.8823 35.6718 84.0521 34.513C85.2214 33.3542 85.9156 31.7999 85.9969 30.1555C86.0786 28.5112 85.5427 26.8957 84.4937 25.6267C83.4448 24.3577 81.9589 23.5269 80.3286 23.2977C78.6984 23.0684 77.0411 23.4573 75.6828 24.3879C74.325 25.3184 73.3635 26.7233 72.9891 28.3265L67.5958 28.2532C67.4104 28.2137 67.2182 28.2182 67.0344 28.2662C66.851 28.3142 66.6812 28.4045 66.5391 28.5298C66.3964 28.6551 66.2854 28.8119 66.2146 28.9879C66.1438 29.1638 66.1146 29.3538 66.1302 29.5429V48.7704H54.8604V51.4816H66.1302V70.6505C66.1302 71.0391 66.2844 71.412 66.5594 71.687C66.8344 71.9615 67.2073 72.1162 67.5958 72.1162H72.1974C72.5193 73.7203 73.426 75.1479 74.7411 76.1208C76.0568 77.0938 77.687 77.5432 79.3151 77.3818C80.9432 77.2198 82.4531 76.4589 83.5516 75.2458C84.65 74.0333 85.2583 72.4552 85.2583 70.8193C85.2583 69.1828 84.65 67.6052 83.5516 66.3922C82.4531 65.1792 80.9432 64.4182 79.3151 64.2568C77.687 64.0948 76.0568 64.5443 74.7411 65.5172C73.426 66.4906 72.5193 67.9177 72.1974 69.5219H69.0026L68.9292 51.467H76.5354C76.8354 52.9583 77.6411 54.3005 78.8156 55.2667C79.9901 56.2334 81.4625 56.7651 82.9838 56.7719ZM82.9838 46.5135C83.7083 46.5135 84.4167 46.7284 85.0193 47.131C85.6219 47.5336 86.0911 48.1058 86.3687 48.7752C86.6458 49.4447 86.7182 50.1814 86.5771 50.8921C86.4354 51.6028 86.087 52.2557 85.5745 52.7682C85.062 53.2802 84.4094 53.6292 83.6984 53.7708C82.9875 53.912 82.251 53.8396 81.5818 53.562C80.912 53.2849 80.3401 52.8151 79.9375 52.213C79.5349 51.6103 79.3198 50.9019 79.3198 50.1773C79.3198 49.2056 79.7057 48.2737 80.3927 47.5866C81.0802 46.8995 82.012 46.5135 82.9838 46.5135ZM79.3198 26.1282C80.0422 26.1312 80.7474 26.3484 81.3464 26.7524C81.9448 27.1565 82.4104 27.7291 82.6833 28.3979C82.9562 29.0666 83.025 29.8014 82.8802 30.509C82.7354 31.2167 82.3839 31.8655 81.8698 32.3732C81.3557 32.8808 80.7031 33.2246 79.9937 33.3609C79.2844 33.4972 78.5505 33.4199 77.8849 33.1388C77.2198 32.8577 76.6526 32.3854 76.2557 31.7818C75.8589 31.1781 75.6505 30.4704 75.6562 29.748C75.6562 29.2664 75.7516 28.7894 75.9365 28.3448C76.1219 27.9001 76.3932 27.4965 76.7354 27.1573C77.0771 26.818 77.4828 26.5499 77.9292 26.3682C78.375 26.1866 78.8526 26.0951 79.3344 26.0989L79.3198 26.1282ZM78.587 67.0307C79.2932 67.0276 79.9849 67.2287 80.5792 67.6094C81.1734 67.9901 81.6453 68.5349 81.9375 69.1771C82.2302 69.8198 82.3302 70.5328 82.2271 71.2313C82.1234 71.9297 81.8208 72.5834 81.3547 73.1136C80.8885 73.6438 80.2792 74.0276 79.6 74.2198C78.9208 74.412 78.2005 74.4037 77.5255 74.1964C76.851 73.9891 76.2505 73.5906 75.7969 73.05C75.3427 72.5094 75.0547 71.8495 74.9672 71.149C74.9672 71.0021 74.9672 70.8557 74.9672 70.7094C74.9667 70.4479 74.9964 70.187 75.0552 69.9323C75.2302 69.1214 75.6745 68.3932 76.3156 67.8662C76.9568 67.3396 77.7573 67.0453 78.587 67.0307Z" fill="white"/>
<path d="M26.4972 131.205C25.5511 131.205 24.7351 130.996 24.049 130.578C23.3672 130.156 22.8409 129.568 22.4702 128.814C22.1037 128.055 21.9205 127.173 21.9205 126.168C21.9205 125.162 22.1037 124.276 22.4702 123.509C22.8409 122.737 23.3565 122.136 24.017 121.706C24.6818 121.271 25.4574 121.054 26.3438 121.054C26.8551 121.054 27.3601 121.139 27.8587 121.31C28.3572 121.48 28.8111 121.757 29.2202 122.141C29.6293 122.52 29.9553 123.023 30.1982 123.649C30.4411 124.276 30.5625 125.047 30.5625 125.963V126.602H22.9943V125.298H29.0284C29.0284 124.744 28.9176 124.25 28.696 123.815C28.4787 123.381 28.1676 123.038 27.7628 122.786C27.3622 122.535 26.8892 122.409 26.3438 122.409C25.7429 122.409 25.223 122.558 24.7841 122.857C24.3494 123.151 24.0149 123.534 23.7805 124.007C23.5462 124.48 23.429 124.987 23.429 125.528V126.398C23.429 127.139 23.5568 127.768 23.8125 128.283C24.0724 128.795 24.4325 129.185 24.8928 129.453C25.353 129.717 25.8878 129.849 26.4972 129.849C26.8935 129.849 27.2514 129.794 27.571 129.683C27.8949 129.568 28.174 129.398 28.4084 129.172C28.6428 128.942 28.8239 128.656 28.9517 128.315L30.4091 128.724C30.2557 129.219 29.9979 129.653 29.6357 130.028C29.2734 130.399 28.826 130.689 28.2933 130.898C27.7607 131.102 27.1619 131.205 26.4972 131.205ZM40.5868 121.182L36.9561 131H35.4221L31.7914 121.182H33.4277L36.138 129.006H36.2402L38.9505 121.182H40.5868ZM46.3429 131.205C45.3968 131.205 44.5808 130.996 43.8947 130.578C43.2129 130.156 42.6866 129.568 42.3159 128.814C41.9494 128.055 41.7662 127.173 41.7662 126.168C41.7662 125.162 41.9494 124.276 42.3159 123.509C42.6866 122.737 43.2022 122.136 43.8627 121.706C44.5275 121.271 45.3031 121.054 46.1895 121.054C46.7008 121.054 47.2058 121.139 47.7044 121.31C48.2029 121.48 48.6568 121.757 49.0659 122.141C49.475 122.52 49.801 123.023 50.0439 123.649C50.2868 124.276 50.4082 125.047 50.4082 125.963V126.602H42.84V125.298H48.8741C48.8741 124.744 48.7633 124.25 48.5417 123.815C48.3244 123.381 48.0133 123.038 47.6085 122.786C47.2079 122.535 46.7349 122.409 46.1895 122.409C45.5886 122.409 45.0687 122.558 44.6298 122.857C44.1951 123.151 43.8606 123.534 43.6262 124.007C43.3919 124.48 43.2747 124.987 43.2747 125.528V126.398C43.2747 127.139 43.4025 127.768 43.6582 128.283C43.9181 128.795 44.2782 129.185 44.7385 129.453C45.1987 129.717 45.7335 129.849 46.3429 129.849C46.7392 129.849 47.0971 129.794 47.4167 129.683C47.7406 129.568 48.0197 129.398 48.2541 129.172C48.4885 128.942 48.6696 128.656 48.7974 128.315L50.2548 128.724C50.1014 129.219 49.8436 129.653 49.4814 130.028C49.1191 130.399 48.6717 130.689 48.139 130.898C47.6064 131.102 47.0076 131.205 46.3429 131.205ZM54.2115 125.094V131H52.7029V121.182H54.1603V122.716H54.2882C54.5183 122.217 54.8677 121.817 55.3365 121.514C55.8052 121.207 56.4103 121.054 57.1518 121.054C57.8166 121.054 58.3983 121.19 58.8968 121.463C59.3954 121.732 59.7832 122.141 60.0602 122.69C60.3372 123.236 60.4757 123.926 60.4757 124.761V131H58.9672V124.864C58.9672 124.092 58.7669 123.491 58.3663 123.061C57.9657 122.626 57.416 122.409 56.7172 122.409C56.2356 122.409 55.8052 122.513 55.426 122.722C55.051 122.931 54.7548 123.236 54.5375 123.636C54.3201 124.037 54.2115 124.523 54.2115 125.094ZM67.5021 121.182V122.46H62.4141V121.182H67.5021ZM63.897 118.83H65.4055V128.188C65.4055 128.614 65.4673 128.933 65.5909 129.146C65.7188 129.355 65.8807 129.496 66.0767 129.568C66.277 129.636 66.4879 129.67 66.7095 129.67C66.8757 129.67 67.0121 129.662 67.1186 129.645C67.2251 129.624 67.3104 129.607 67.3743 129.594L67.6811 130.949C67.5788 130.987 67.4361 131.026 67.2528 131.064C67.0696 131.107 66.8374 131.128 66.5561 131.128C66.13 131.128 65.7124 131.036 65.3033 130.853C64.8984 130.67 64.5618 130.391 64.2933 130.016C64.0291 129.641 63.897 129.168 63.897 128.597V118.83ZM76.5501 123.381L75.195 123.764C75.1097 123.538 74.984 123.319 74.8178 123.106C74.6559 122.888 74.4343 122.71 74.1531 122.569C73.8718 122.428 73.5117 122.358 73.0728 122.358C72.4719 122.358 71.9712 122.496 71.5707 122.773C71.1744 123.046 70.9762 123.393 70.9762 123.815C70.9762 124.19 71.1126 124.487 71.3853 124.704C71.658 124.921 72.0842 125.102 72.6637 125.247L74.1211 125.605C74.9989 125.818 75.6531 126.144 76.0835 126.583C76.5138 127.018 76.729 127.578 76.729 128.264C76.729 128.827 76.5671 129.33 76.2433 129.773C75.9237 130.216 75.4762 130.565 74.9009 130.821C74.3256 131.077 73.6566 131.205 72.8938 131.205C71.8924 131.205 71.0636 130.987 70.4073 130.553C69.7511 130.118 69.3356 129.483 69.1609 128.648L70.5927 128.29C70.729 128.818 70.9869 129.214 71.3661 129.479C71.7496 129.743 72.2504 129.875 72.8683 129.875C73.5714 129.875 74.1296 129.726 74.543 129.428C74.9606 129.125 75.1694 128.763 75.1694 128.341C75.1694 128 75.0501 127.714 74.8114 127.484C74.5728 127.25 74.2063 127.075 73.712 126.96L72.0756 126.577C71.1765 126.364 70.516 126.033 70.0941 125.586C69.6765 125.134 69.4677 124.57 69.4677 123.892C69.4677 123.338 69.6232 122.848 69.9343 122.422C70.2496 121.996 70.6779 121.661 71.2191 121.418C71.7646 121.175 72.3825 121.054 73.0728 121.054C74.0444 121.054 74.8072 121.267 75.3612 121.693C75.9194 122.119 76.3157 122.682 76.5501 123.381Z" fill="#6B7280"/>
<defs>
<linearGradient id="paint0_linear_2_79" x1="30.2694" y1="52.3245" x2="55.9313" y2="52.3245" gradientUnits="userSpaceOnUse">
<stop stop-color="#32B7FF"/>
<stop offset="0.333333" stop-color="#B986FF"/>
<stop offset="0.666667" stop-color="#14CC92"/>
<stop offset="1" stop-color="#FFBC42"/>
</linearGradient>
</defs>
</svg>
