<?xml version="1.0" encoding="UTF-8"?>
<!DOCTYPE svg PUBLIC "-//W3C//DTD SVG 1.1//EN" "http://www.w3.org/Graphics/SVG/1.1/DTD/svg11.dtd">
<!-- Creator: CorelDRAW -->
<svg xmlns="http://www.w3.org/2000/svg" xml:space="preserve" width="5.76484in" height="2.19311in" version="1.1" style="shape-rendering:geometricPrecision; text-rendering:geometricPrecision; image-rendering:optimizeQuality; fill-rule:evenodd; clip-rule:evenodd"
viewBox="0 0 5764.84 2193.11"
 xmlns:xlink="http://www.w3.org/1999/xlink">
 <defs>
  <style type="text/css">
   <![CDATA[
    .fil0 {fill:black}
    .fil1 {fill:black;fill-rule:nonzero}
   ]]>
  </style>
 </defs>
 <g id="Layer_x0020_1">
  <metadata id="CorelCorpID_0Corel-Layer"/>
  <g id="_3WF">
   <path class="fil0" d="M3284.83 793.64l-158.19 -301.24c31.54,-59.69 63.07,-119.38 94.57,-179.09l67.46 -127.86 102.89 0 -89.87 170.33c-24.05,45.59 -48.13,91.17 -72.2,136.75 52.7,100.37 105.41,200.74 158.12,301.11l-102.79 0z"/>
   <path class="fil0" d="M2882.77 1157.02c-43.73,82.84 -87.46,165.68 -131.17,248.53l-74.94 142.02 -160.6 0c-31.61,0 -63.23,0 -94.84,0l-440.25 0 204.4 -389.93c179.24,-341.94 354.64,-685.9 534.44,-1027.56l68.46 -130.08 470.84 3.44 -55.51 91 -360.79 -2.69 -42.48 80.71c-179.78,341.61 -355.15,685.52 -534.37,1027.42l-134.55 256.69 289.8 0c31.61,0 63.23,0 94.84,0l105.72 0 49.33 -93.49c70.4,-133.42 140.83,-266.82 211.26,-400.22 71.25,133.64 142.5,267.27 213.76,400.9l49.49 92.81 105.21 0c30.75,0 61.5,0 92.25,0l290.19 0 -135.07 -256.87c-33.26,-63.26 -66.51,-126.52 -99.76,-189.78l102.8 0 77.5 147.43 205.2 390.22 -440.85 0c-30.75,0 -61.5,0 -92.25,0l-159.81 0 -75.18 -140.99c-44.36,-83.19 -88.72,-166.37 -133.07,-249.56z"/>
   <path class="fil0" d="M2881.98 768.68c98.14,184.09 196.3,368.18 294.46,552.26l23.8 44.63 50.6 0c30.75,0 61.5,0 92.24,0l139.52 0 -64.95 -123.51c-131.39,-249.87 -262.61,-499.83 -393.87,-749.78 38.99,-73.8 77.99,-147.6 116.94,-221.43l44.03 -83.44 -287.4 -3.91 -16.5 31.35c-179.76,341.57 -355.11,685.43 -534.3,1027.29l-64.7 123.43 139.36 0c31.61,0 63.23,0 94.84,0l50.85 0 23.72 -44.96c97.09,-183.99 194.24,-367.96 291.35,-551.93z"/>
  </g>
  <polygon id="_3WT" class="fil1" points="-0,1952.42 -0,2186.45 42.61,2186.45 42.61,2106.89 226.38,2106.89 226.38,2068.94 42.61,2068.94 42.61,1990.37 246.35,1990.37 246.35,1952.42 "/>
  <path id="1" class="fil1" d="M782.5 1952.42l-42.28 0 0 119.52c0,36.95 -9.32,83.22 -104.2,83.22 -94.55,0 -103.87,-45.94 -103.87,-83.22l0 -119.52 -42.61 0 0 120.18c0,81.23 43.94,120.51 146.48,120.51 102.2,0 146.48,-39.61 146.48,-120.51l0 -120.18z"/>
  <polygon id="2" class="fil1" points="1093.94,1952.42 1033.02,1952.42 1033.02,2186.45 1075.63,2186.45 1075.63,1994.36 1263.39,2186.45 1324.31,2186.45 1324.31,1952.42 1281.7,1952.42 1281.7,2144.51 "/>
  <path id="3" class="fil1" d="M1568.17 2069.27c0,75.57 48.94,123.84 150.15,123.84 88.89,0 134.49,-40.61 141.82,-91.88l-46.28 0c-6.33,33.29 -38.95,53.93 -95.54,53.93 -64.59,0 -104.2,-25.3 -104.2,-85.89 0,-60.59 39.28,-85.56 104.2,-85.56 56.93,0 89.22,19.97 95.54,53.26l45.94 0c-6.99,-50.94 -52.6,-91.22 -141.48,-91.22 -101.2,0 -150.15,47.94 -150.15,123.51z"/>
  <polygon id="4" class="fil1" points="2080.02,1990.37 2202.2,1990.37 2202.2,2186.45 2244.48,2186.45 2244.48,1990.37 2366.33,1990.37 2366.33,1952.42 2080.02,1952.42 "/>
  <polygon id="5" class="fil1" points="2607.85,1952.42 2607.85,2186.45 2650.47,2186.45 2650.47,1952.42 "/>
  <path id="6" class="fil1" d="M3045.13 2193.11c101.87,0 150.47,-48.94 150.47,-123.84 0,-74.91 -48.6,-123.51 -150.47,-123.51 -102.2,0 -150.81,48.27 -150.81,123.51 0,75.24 48.61,123.84 150.81,123.84zm0 -37.95c-65.92,0 -104.87,-25.3 -104.87,-85.89 0,-60.59 38.61,-85.56 104.87,-85.56 66.25,0 104.87,25.3 104.87,85.56 0,60.26 -38.95,85.89 -104.87,85.89z"/>
  <polygon id="7" class="fil1" points="3500.72,1952.42 3439.8,1952.42 3439.8,2186.45 3482.41,2186.45 3482.41,1994.36 3670.17,2186.45 3731.09,2186.45 3731.09,1952.42 3688.48,1952.42 3688.48,2144.51 "/>
  <polygon id="8" class="fil1" points="3984.61,1952.42 3984.61,2186.45 4206.99,2186.45 4206.99,2148.5 4027.22,2148.5 4027.22,1952.42 "/>
  <polygon id="9" class="fil1" points="4453.84,1952.42 4453.84,2186.45 4700.2,2186.45 4700.2,2149.5 4496.46,2149.5 4496.46,2087.91 4693.54,2087.91 4693.54,2050.96 4496.46,2050.96 4496.46,1989.7 4700.2,1989.7 4700.2,1952.42 "/>
  <path id="10" class="fil1" d="M4935.4 2110.55c3.33,62.59 62.92,82.56 158.47,82.56 77.23,0 139.15,-13.98 139.15,-74.91 0,-58.26 -56.93,-62.59 -147.81,-68.91 -77.57,-5.33 -94.88,-11.32 -94.88,-33.96 0,-21.64 17.31,-32.96 85.56,-32.96 72.91,0 101.54,11.98 101.54,42.28l45.61 0c-0.33,-52.93 -54.59,-78.9 -141.48,-78.9 -83.23,0 -136.83,16.65 -136.83,67.58 0,51.27 40.61,67.25 138.82,72.91 87.56,5.33 103.87,9.32 103.87,34.29 0,23.3 -25.3,35.96 -93.88,35.96 -86.22,0 -112.19,-16.98 -112.19,-45.94l-45.94 0z"/>
  <path id="11" class="fil1" d="M5467.22 2110.55c3.33,62.59 62.92,82.56 158.47,82.56 77.23,0 139.15,-13.98 139.15,-74.91 0,-58.26 -56.93,-62.59 -147.81,-68.91 -77.57,-5.33 -94.88,-11.32 -94.88,-33.96 0,-21.64 17.31,-32.96 85.56,-32.96 72.91,0 101.54,11.98 101.54,42.28l45.61 0c-0.33,-52.93 -54.59,-78.9 -141.48,-78.9 -83.23,0 -136.83,16.65 -136.83,67.58 0,51.27 40.61,67.25 138.82,72.91 87.56,5.33 103.87,9.32 103.87,34.29 0,23.3 -25.3,35.96 -93.88,35.96 -86.22,0 -112.19,-16.98 -112.19,-45.94l-45.94 0z"/>
 </g>
</svg>
