<svg width="192" height="192" viewBox="0 0 192 192" fill="none" xmlns="http://www.w3.org/2000/svg">
<path fill-rule="evenodd" clip-rule="evenodd" d="M23.1723 44.869C23.4286 30.0085 58.8357 20 92.1042 20C125.494 20 160.477 30.0815 160.477 44.9021V45.2654C160.58 45.8031 160.582 46.3603 160.477 46.9082V47.3148C160.445 47.4291 160.41 47.5428 160.373 47.656L145.696 153.946C145.696 158.642 141.388 162.562 133.805 165.621C130.503 166.857 127.12 167.864 123.681 168.637C113.123 170.932 102.345 172.059 91.5405 171.998C69.9989 171.998 37.988 167.172 37.471 153.946L23.0812 46.9269C22.9466 46.237 22.9809 45.5319 23.1723 44.869ZM76.0853 67.1754C81.5127 67.587 86.7757 67.7794 91.5441 67.7794C91.7431 67.7794 91.943 67.779 92.1436 67.7784C97.0651 67.763 102.482 67.545 108.044 67.0958C123.233 65.8716 139.536 62.9274 149.949 57.6619L137.036 153.041C137.017 153.198 137.017 153.358 137.036 153.515C137.036 153.515 136.347 155.324 130.574 157.608C127.682 158.694 124.716 159.572 121.699 160.236C111.792 162.39 101.678 163.445 91.5405 163.381C65.3459 163.381 47.2078 156.919 46.1307 153.86V153.256L33.2057 57.827C43.7074 63.0619 60.5471 66.0028 76.0853 67.1754ZM31.5595 44.7161C32.6573 39.5925 55.8806 28.7028 91.7595 28.7028C128.079 28.7028 151.258 39.9476 151.861 44.9021L151.602 45.4622C151.023 47.1479 148.484 49.0489 144.297 50.8861C134.361 55.2074 115.436 59.1626 91.5405 59.1626C91.3487 59.1626 91.1573 59.1623 90.9662 59.1618C78.4678 59.126 67.3671 58.0127 58.2377 56.34C42.3981 53.4332 32.5132 48.8342 31.6978 45.2467C31.6626 45.0662 31.6163 44.889 31.5595 44.7161Z" fill="url(#paint0_linear_2039_36572)"/>
<circle cx="91.5424" cy="83.6772" r="8.61666" fill="white"/>
<path fill-rule="evenodd" clip-rule="evenodd" d="M89.6914 86.5212C129.199 105.952 149.448 111.725 159.357 111.725C160.781 111.913 162.228 111.787 163.598 111.355C164.968 110.924 166.226 110.197 167.284 109.226C167.944 108.434 168.421 107.505 168.682 106.508C168.943 105.51 168.98 104.467 168.792 103.453C168.034 99.2605 163.723 95.1422 154.591 89.8633L153.27 99.107C155.321 100.463 157.27 101.973 159.099 103.625C150.008 103.582 119.333 91.4757 93.4827 78.7662L89.6914 86.5212Z" fill="white"/>
<defs>
<linearGradient id="paint0_linear_2039_36572" x1="23" y1="96.0016" x2="160.555" y2="96.0016" gradientUnits="userSpaceOnUse">
<stop stop-color="#32B7FF"/>
<stop offset="0.333333" stop-color="#B986FF"/>
<stop offset="0.666667" stop-color="#14CC92"/>
<stop offset="1" stop-color="#FFBC42"/>
</linearGradient>
</defs>
</svg>
