<svg width="192" height="192" viewBox="0 0 192 192" fill="none" xmlns="http://www.w3.org/2000/svg">
<path d="M97.0031 44.5846L66.6895 69.2286L70.7696 74.2474L101.083 49.6034L97.0031 44.5846Z" fill="white"/>
<path d="M70.752 117.733L66.6719 122.752L96.9855 147.396L101.066 142.377L70.752 117.733Z" fill="white"/>
<path d="M72.7881 96.9663L70.7422 103.102L140.478 126.354L142.523 120.218L72.7881 96.9663Z" fill="white"/>
<path d="M140.883 65.2569L71.0488 88.78L73.1186 94.9247L142.953 71.4016L140.883 65.2569Z" fill="white"/>
<path d="M110.778 48.6889L105.439 52.3413L144.849 109.94L150.187 106.288L110.778 48.6889Z" fill="white"/>
<path d="M152.562 59.1318C141.696 50.594 124.587 38.1106 124.426 37.9812L128.339 32.7421C128.533 32.7421 145.738 45.4195 156.701 54.0544L152.562 59.1318Z" fill="white"/>
<path d="M126.336 53.7634H99.0407C98.183 53.7634 97.3604 53.4226 96.7539 52.8161C96.1474 52.2096 95.8066 51.387 95.8066 50.5293V23.234C95.8066 22.3763 96.1474 21.5537 96.7539 20.9472C97.3604 20.3407 98.183 20 99.0407 20H126.336C127.194 20 128.016 20.3407 128.623 20.9472C129.229 21.5537 129.57 22.3763 129.57 23.234V50.5293C129.57 51.387 129.229 52.2096 128.623 52.8161C128.016 53.4226 127.194 53.7634 126.336 53.7634ZM102.275 47.2953H123.102V26.4681H102.275V47.2953Z" fill="white"/>
<path d="M144.86 82.0562L105.461 139.662L110.8 143.313L150.199 85.7077L144.86 82.0562Z" fill="white"/>
<path d="M128.34 159.258L124.557 154.019C124.718 154.019 141.826 141.406 152.693 132.868L156.574 138.043C145.61 146.58 128.34 159.129 128.34 159.258Z" fill="white"/>
<path d="M126.336 171.999H99.0407C98.183 171.999 97.3604 171.659 96.7539 171.052C96.1474 170.446 95.8066 169.623 95.8066 168.765V141.47C95.8066 140.612 96.1474 139.79 96.7539 139.183C97.3604 138.577 98.183 138.236 99.0407 138.236H126.336C127.194 138.236 128.016 138.577 128.623 139.183C129.229 139.79 129.57 140.612 129.57 141.47V168.765C129.57 169.623 129.229 170.446 128.623 171.052C128.016 171.659 127.194 171.999 126.336 171.999ZM102.275 165.531H123.102V144.704H102.275V165.531Z" fill="white"/>
<path d="M168.766 138.657H141.47C140.613 138.657 139.79 138.316 139.184 137.709C138.577 137.103 138.236 136.28 138.236 135.423V108.127C138.236 107.27 138.577 106.447 139.184 105.841C139.79 105.234 140.613 104.893 141.47 104.893H168.766C169.623 104.893 170.446 105.234 171.052 105.841C171.659 106.447 172 107.27 172 108.127V135.423C172 136.28 171.659 137.103 171.052 137.709C170.446 138.316 169.623 138.657 168.766 138.657ZM144.704 132.189H165.532V111.361H144.704V132.189Z" fill="white"/>
<path d="M168.766 87.1062H141.47C140.613 87.1062 139.79 86.7655 139.184 86.159C138.577 85.5525 138.236 84.7299 138.236 83.8722V56.5769C138.236 55.7192 138.577 54.8966 139.184 54.2901C139.79 53.6836 140.613 53.3428 141.47 53.3428H168.766C169.623 53.3428 170.446 53.6836 171.052 54.2901C171.659 54.8966 172 55.7192 172 56.5769V83.8722C172 84.7299 171.659 85.5525 171.052 86.159C170.446 86.7655 169.623 87.1062 168.766 87.1062ZM144.704 80.6381H165.532V59.8109H144.704V80.6381Z" fill="white"/>
<path d="M71.7446 123.489H23.234C22.3763 123.489 21.5537 123.149 20.9472 122.542C20.3407 121.936 20 121.113 20 120.255V71.7447C20 70.887 20.3407 70.0644 20.9472 69.4579C21.5537 68.8514 22.3763 68.5107 23.234 68.5107H71.7446C72.6023 68.5107 73.4249 68.8514 74.0314 69.4579C74.6379 70.0644 74.9786 70.887 74.9786 71.7447V120.255C74.9786 121.113 74.6379 121.936 74.0314 122.542C73.4249 123.149 72.6023 123.489 71.7446 123.489ZM26.4681 117.021H68.5106V74.9788H26.4681V117.021Z" fill="url(#paint0_linear_2039_36597)"/>
<defs>
<linearGradient id="paint0_linear_2039_36597" x1="20" y1="96.0006" x2="74.9786" y2="96.0006" gradientUnits="userSpaceOnUse">
<stop stop-color="#32B7FF"/>
<stop offset="0.333333" stop-color="#B986FF"/>
<stop offset="0.666667" stop-color="#14CC92"/>
<stop offset="1" stop-color="#FFBC42"/>
</linearGradient>
</defs>
</svg>
