<svg width="192" height="192" viewBox="0 0 192 192" fill="none" xmlns="http://www.w3.org/2000/svg">
<path d="M96.3444 50.0006C92.7495 50.0006 61.001 49.7178 61.001 61.7144C60.9871 62.4744 61.1244 63.2295 61.4049 63.936C61.5229 64.2263 61.6578 64.5096 61.8088 64.7842L83.7823 113.255V138.339C83.7823 140.884 84.8326 142.378 87.0541 142.378H88.1043C93.1824 141.049 97.9011 138.607 101.919 135.229L104.625 133.33C105.201 132.97 105.677 132.47 106.009 131.877C106.341 131.284 106.518 130.617 106.523 129.937V113.376L130.961 64.9054C131.123 64.6563 131.245 64.3838 131.324 64.0976C131.605 63.3911 131.742 62.636 131.728 61.876C131.728 49.7178 99.9798 50.0006 96.3444 50.0006ZM96.3444 57.4328C110.603 57.4328 119.772 59.9371 122.842 61.7144C119.772 63.4917 110.724 65.996 96.3444 65.996C81.9647 65.996 72.9571 63.4917 69.8873 61.7144C72.9975 59.9775 82.0859 57.4328 96.3444 57.4328ZM99.2931 109.943C99.2931 110.509 99.2931 111.518 99.2931 112.569V128.362L97.7178 129.332C95.4154 130.664 93.3958 131.593 91.0934 132.805V112.488C91.0837 111.934 90.9742 111.387 90.7703 110.872L73.563 71.5298C81.0423 73.196 88.6818 74.0359 96.3444 74.0341C103.784 74.0284 111.203 73.2432 118.48 71.6914L99.2931 109.943Z" fill="url(#paint0_linear_2141_37316)"/>
<path d="M96 172C80.9686 172 66.2748 167.543 53.7767 159.192C41.2786 150.841 31.5374 138.971 25.7852 125.084C20.0329 111.197 18.5279 95.9157 21.4604 81.1732C24.3928 66.4306 31.6311 52.8887 42.2599 42.2599C52.8887 31.6311 66.4306 24.3928 81.1732 21.4604C95.9157 18.5279 111.197 20.0329 125.084 25.7852C138.971 31.5374 150.841 41.2786 159.192 53.7767C167.543 66.2748 172 80.9686 172 96C171.983 116.151 163.97 135.472 149.721 149.721C135.472 163.97 116.151 171.983 96 172ZM96 26.4681C82.2479 26.4681 68.8046 30.5461 57.3702 38.1864C45.9357 45.8266 37.0236 56.686 31.7609 69.3913C26.4982 82.0966 25.1212 96.0772 27.8042 109.565C30.4871 123.053 37.1093 135.442 46.8335 145.166C56.5577 154.891 68.9471 161.513 82.435 164.196C95.9229 166.879 109.903 165.502 122.609 160.239C135.314 154.976 146.173 146.064 153.814 134.63C161.454 123.195 165.532 109.752 165.532 96C165.506 77.5669 158.172 59.8961 145.138 46.8619C132.104 33.8277 114.433 26.4938 96 26.4681Z" fill="white"/>
<defs>
<linearGradient id="paint0_linear_2141_37316" x1="61" y1="96.1901" x2="131.729" y2="96.1901" gradientUnits="userSpaceOnUse">
<stop stop-color="#32B7FF"/>
<stop offset="0.333333" stop-color="#B986FF"/>
<stop offset="0.666667" stop-color="#14CC92"/>
<stop offset="1" stop-color="#FFBC42"/>
</linearGradient>
</defs>
</svg>
