<svg width="192" height="192" viewBox="0 0 192 192" fill="none" xmlns="http://www.w3.org/2000/svg">
<path d="M147.965 172H43.6996C41.3893 171.991 39.1766 171.068 37.5461 169.431C35.9155 167.794 35 165.578 35 163.268V28.7319C35 26.4217 35.9155 24.2055 37.5461 22.5689C39.1766 20.9323 41.3893 20.0086 43.6996 20H121.317L156.568 55.2511V163.268C156.568 165.562 155.666 167.763 154.056 169.397C152.446 171.031 150.258 171.966 147.965 172ZM43.6996 26.4681C43.4038 26.4681 43.1109 26.5268 42.8381 26.641C42.5652 26.7551 42.3178 26.9224 42.1101 27.1331C41.9025 27.3437 41.7388 27.5935 41.6286 27.868C41.5184 28.1425 41.4638 28.4362 41.4681 28.7319V163.268C41.4638 163.564 41.5184 163.857 41.6286 164.132C41.7388 164.406 41.9025 164.656 42.1101 164.867C42.3178 165.078 42.5652 165.245 42.8381 165.359C43.1109 165.473 43.4038 165.532 43.6996 165.532H147.965C148.261 165.532 148.554 165.473 148.827 165.359C149.099 165.245 149.347 165.078 149.555 164.867C149.762 164.656 149.926 164.406 150.036 164.132C150.146 163.857 150.201 163.564 150.197 163.268V57.9353L118.762 26.4681H43.6996Z" fill="white"/>
<path d="M64.4847 100.141V102.287H61.5774V113.042H58.5454V102.287H56V100.141H58.5454V98.2192C58.5454 97.1877 58.8282 96.3933 59.3939 95.836C59.9678 95.2787 60.7955 95 61.8769 95H64.597L64.6095 97.0713H62.8127C62.3219 97.0713 61.985 97.2002 61.802 97.4581C61.619 97.7076 61.5275 98.1027 61.5275 98.6434V100.141H64.4847Z" fill="url(#paint0_linear_2044_36658)"/>
<path d="M71.6922 113.292C71.06 113.292 70.4486 113.2 69.858 113.017C69.2757 112.826 68.7517 112.552 68.2858 112.194C67.82 111.828 67.4499 111.379 67.1753 110.846C66.9008 110.314 66.7636 109.694 66.7636 108.987V100.141H69.8081V108.638C69.8081 109.337 70.0285 109.911 70.4694 110.36C70.9186 110.809 71.5924 111.034 72.4908 111.034C73.306 111.034 73.9589 110.821 74.4497 110.397C74.9405 109.965 75.1859 109.345 75.1859 108.538V100.141H78.2054V113.042H75.8722L75.5353 110.522C75.3772 111.229 75.0986 111.786 74.6993 112.194C74.3083 112.593 73.8466 112.876 73.3143 113.042C72.7902 113.209 72.2495 113.292 71.6922 113.292Z" fill="url(#paint1_linear_2044_36658)"/>
<path d="M81.5728 113.042V100.141H84.5424V101.987C84.7421 101.655 85.0124 101.334 85.3535 101.027C85.7029 100.719 86.1312 100.469 86.6387 100.278C87.1461 100.087 87.7408 99.991 88.4229 99.991C89.2215 99.991 89.9618 100.149 90.6439 100.465C91.3344 100.781 91.8875 101.276 92.3034 101.95C92.7277 102.624 92.9398 103.493 92.9398 104.558V113.042H89.8953V104.92C89.8953 104.071 89.6624 103.443 89.1966 103.036C88.7307 102.62 88.1443 102.412 87.4372 102.412C86.9548 102.412 86.4973 102.495 86.0647 102.661C85.6321 102.819 85.2786 103.065 85.0041 103.397C84.7379 103.722 84.6048 104.129 84.6048 104.62V113.042H81.5728Z" fill="url(#paint2_linear_2044_36658)"/>
<path d="M101.548 99.8912C102.554 99.8912 103.44 100.091 104.205 100.49C104.971 100.889 105.582 101.443 106.04 102.15C106.505 102.857 106.784 103.659 106.876 104.558H104.28C104.222 104.167 104.081 103.797 103.856 103.447C103.631 103.09 103.328 102.803 102.945 102.586C102.563 102.362 102.101 102.249 101.56 102.249C100.595 102.249 99.8092 102.607 99.2019 103.322C98.603 104.038 98.3036 105.136 98.3036 106.617C98.3036 107.981 98.5905 109.066 99.1645 109.873C99.7385 110.68 100.558 111.083 101.623 111.083C102.155 111.083 102.608 110.967 102.983 110.734C103.365 110.493 103.665 110.198 103.881 109.848C104.106 109.491 104.251 109.133 104.318 108.775H106.838C106.763 109.649 106.489 110.426 106.015 111.108C105.549 111.791 104.933 112.327 104.168 112.718C103.411 113.101 102.538 113.292 101.548 113.292C100.367 113.292 99.3142 113.034 98.3909 112.518C97.4759 111.994 96.7564 111.237 96.2323 110.247C95.7082 109.249 95.4462 108.047 95.4462 106.641C95.4462 105.302 95.6916 104.129 96.1824 103.123C96.6732 102.108 97.3761 101.318 98.2911 100.752C99.2061 100.178 100.292 99.8912 101.548 99.8912Z" fill="url(#paint3_linear_2044_36658)"/>
<path d="M116.296 97.77C116.296 97.1711 116.462 96.6678 116.795 96.2602C117.127 95.8443 117.56 95.5324 118.092 95.3244C118.633 95.1081 119.215 95 119.839 95H121.399V96.7968H120.401C119.951 96.7968 119.615 96.8508 119.39 96.959C119.174 97.0671 119.028 97.221 118.953 97.4206C118.887 97.612 118.853 97.8324 118.853 98.0819V103.198C118.837 103.797 118.7 104.287 118.442 104.67C118.192 105.044 117.872 105.327 117.481 105.519C117.098 105.71 116.703 105.826 116.296 105.868C116.196 105.876 116.142 105.901 116.133 105.943C116.133 105.984 116.187 106.013 116.296 106.03C116.695 106.063 117.086 106.167 117.468 106.342C117.859 106.517 118.184 106.8 118.442 107.191C118.7 107.573 118.837 108.101 118.853 108.775V113.941C118.853 114.398 118.962 114.731 119.178 114.939C119.394 115.155 119.806 115.263 120.413 115.263H121.399V117.06H119.889C119.24 117.06 118.641 116.952 118.092 116.736C117.543 116.52 117.107 116.199 116.782 115.775C116.458 115.359 116.296 114.848 116.296 114.24V109.025C116.296 108.634 116.196 108.268 115.996 107.927C115.796 107.577 115.489 107.299 115.073 107.091C114.657 106.874 114.124 106.766 113.476 106.766V105.132C114.457 105.123 115.173 104.911 115.622 104.495C116.071 104.071 116.296 103.497 116.296 102.773V97.77Z" fill="url(#paint4_linear_2044_36658)"/>
<path d="M133.18 97.77C133.18 97.1711 133.014 96.6678 132.681 96.2602C132.348 95.8443 131.912 95.5324 131.371 95.3244C130.838 95.1081 130.26 95 129.636 95H128.077V96.7968H129.075C129.524 96.7968 129.857 96.8508 130.073 96.959C130.298 97.0671 130.443 97.221 130.51 97.4206C130.585 97.612 130.622 97.8324 130.622 98.0819V103.198C130.639 103.797 130.772 104.287 131.021 104.67C131.279 105.044 131.6 105.327 131.982 105.519C132.373 105.71 132.772 105.826 133.18 105.868C133.28 105.876 133.33 105.901 133.33 105.943C133.338 105.984 133.288 106.013 133.18 106.03C132.781 106.063 132.386 106.167 131.995 106.342C131.612 106.517 131.292 106.8 131.034 107.191C130.776 107.573 130.639 108.101 130.622 108.775V113.941C130.622 114.398 130.514 114.731 130.298 114.939C130.082 115.155 129.67 115.263 129.063 115.263H128.077V117.06H129.587C130.235 117.06 130.834 116.952 131.383 116.736C131.932 116.52 132.369 116.199 132.693 115.775C133.018 115.359 133.18 114.848 133.18 114.24V109.025C133.18 108.634 133.28 108.268 133.48 107.927C133.679 107.577 133.987 107.299 134.403 107.091C134.819 106.874 135.351 106.766 136 106.766V105.132C135.018 105.123 134.303 104.911 133.854 104.495C133.405 104.071 133.18 103.497 133.18 102.773V97.77Z" fill="url(#paint5_linear_2044_36658)"/>
<path d="M156.661 58.6143H150.193V100.301H156.661V58.6143Z" fill="white"/>
<path d="M153.431 59.811H120.088C119.23 59.811 118.407 59.4703 117.801 58.8638C117.194 58.2573 116.854 57.4347 116.854 56.577V23.234H123.322V53.3429H153.431V59.811Z" fill="white"/>
<defs>
<linearGradient id="paint0_linear_2044_36658" x1="56" y1="106.03" x2="136" y2="106.03" gradientUnits="userSpaceOnUse">
<stop stop-color="#32B7FF"/>
<stop offset="0.333333" stop-color="#B986FF"/>
<stop offset="0.666667" stop-color="#14CC92"/>
<stop offset="1" stop-color="#FFBC42"/>
</linearGradient>
<linearGradient id="paint1_linear_2044_36658" x1="56" y1="106.03" x2="136" y2="106.03" gradientUnits="userSpaceOnUse">
<stop stop-color="#32B7FF"/>
<stop offset="0.333333" stop-color="#B986FF"/>
<stop offset="0.666667" stop-color="#14CC92"/>
<stop offset="1" stop-color="#FFBC42"/>
</linearGradient>
<linearGradient id="paint2_linear_2044_36658" x1="56" y1="106.03" x2="136" y2="106.03" gradientUnits="userSpaceOnUse">
<stop stop-color="#32B7FF"/>
<stop offset="0.333333" stop-color="#B986FF"/>
<stop offset="0.666667" stop-color="#14CC92"/>
<stop offset="1" stop-color="#FFBC42"/>
</linearGradient>
<linearGradient id="paint3_linear_2044_36658" x1="56" y1="106.03" x2="136" y2="106.03" gradientUnits="userSpaceOnUse">
<stop stop-color="#32B7FF"/>
<stop offset="0.333333" stop-color="#B986FF"/>
<stop offset="0.666667" stop-color="#14CC92"/>
<stop offset="1" stop-color="#FFBC42"/>
</linearGradient>
<linearGradient id="paint4_linear_2044_36658" x1="56" y1="106.03" x2="136" y2="106.03" gradientUnits="userSpaceOnUse">
<stop stop-color="#32B7FF"/>
<stop offset="0.333333" stop-color="#B986FF"/>
<stop offset="0.666667" stop-color="#14CC92"/>
<stop offset="1" stop-color="#FFBC42"/>
</linearGradient>
<linearGradient id="paint5_linear_2044_36658" x1="56" y1="106.03" x2="136" y2="106.03" gradientUnits="userSpaceOnUse">
<stop stop-color="#32B7FF"/>
<stop offset="0.333333" stop-color="#B986FF"/>
<stop offset="0.666667" stop-color="#14CC92"/>
<stop offset="1" stop-color="#FFBC42"/>
</linearGradient>
</defs>
</svg>
