<svg width="192" height="192" viewBox="0 0 192 192" fill="none" xmlns="http://www.w3.org/2000/svg">
<path fill-rule="evenodd" clip-rule="evenodd" d="M128.52 172H165.973C166.779 172 167.553 171.68 168.123 171.11C168.693 170.539 169.013 169.766 169.013 168.96V135.52C169.013 134.714 168.693 133.941 168.123 133.37C167.553 132.8 166.779 132.48 165.973 132.48H152.688L99.9748 21.7328C99.7284 21.2155 99.3409 20.7783 98.8568 20.4717C98.3727 20.1652 97.8118 20.0016 97.2388 20H50.4228C49.6166 20 48.8433 20.3203 48.2732 20.8904C47.7031 21.4605 47.3828 22.2337 47.3828 23.04V56.48C47.3828 57.2863 47.7031 58.0595 48.2732 58.6296C48.8433 59.1997 49.6166 59.52 50.4228 59.52H72.8276L125.784 170.267C126.031 170.785 126.418 171.222 126.902 171.528C127.387 171.835 127.947 171.998 128.52 172ZM162.933 165.92H130.436L77.5092 55.1728C77.2628 54.6555 76.8752 54.2183 76.3912 53.9117C75.9071 53.6051 75.3462 53.4416 74.7732 53.44H53.4932V26.08H95.3236L148.037 136.827C148.284 137.345 148.671 137.782 149.155 138.088C149.639 138.395 150.2 138.558 150.773 138.56H162.933V165.92Z" fill="url(#paint0_linear_2039_36617)"/>
<path fill-rule="evenodd" clip-rule="evenodd" d="M26.0736 172.001H65.5936C66.1921 171.989 66.7738 171.801 67.2659 171.461C67.7581 171.12 68.1387 170.641 68.36 170.085L89.944 124.485C90.1432 124.073 90.2467 123.621 90.2467 123.163C90.2467 122.705 90.1432 122.253 89.944 121.841L70.1536 81.1349C69.9029 80.6233 69.5135 80.1924 69.0297 79.8914C68.546 79.5904 67.9874 79.4314 67.4176 79.4325C66.8446 79.4342 66.2838 79.5977 65.7997 79.9043C65.3156 80.2109 64.928 80.648 64.6816 81.1653L23.3376 167.532C23.0935 168.007 22.9791 168.538 23.0057 169.072C23.0324 169.606 23.1993 170.123 23.4896 170.572C23.7634 171.01 24.1444 171.371 24.5965 171.621C25.0486 171.871 25.557 172.002 26.0736 172.001ZM63.6784 165.921H30.9376L67.448 89.4645L83.8336 123.361L63.6784 165.921Z" fill="url(#paint1_linear_2039_36617)"/>
<defs>
<linearGradient id="paint0_linear_2039_36617" x1="23.002" y1="96.0019" x2="169.013" y2="96.0019" gradientUnits="userSpaceOnUse">
<stop stop-color="#32B7FF"/>
<stop offset="0.333333" stop-color="#B986FF"/>
<stop offset="0.666667" stop-color="#14CC92"/>
<stop offset="1" stop-color="#FFBC42"/>
</linearGradient>
<linearGradient id="paint1_linear_2039_36617" x1="23.002" y1="96.0019" x2="169.013" y2="96.0019" gradientUnits="userSpaceOnUse">
<stop stop-color="#32B7FF"/>
<stop offset="0.333333" stop-color="#B986FF"/>
<stop offset="0.666667" stop-color="#14CC92"/>
<stop offset="1" stop-color="#FFBC42"/>
</linearGradient>
</defs>
</svg>
