<svg width="192" height="192" viewBox="0 0 192 192" fill="none" xmlns="http://www.w3.org/2000/svg">
<path d="M168.766 141.362H23.234C22.3763 141.362 21.5537 141.021 20.9472 140.414C20.3407 139.808 20 138.985 20 138.128V53.234C20 52.3763 20.3407 51.5537 20.9472 50.9472C21.5537 50.3407 22.3763 50 23.234 50H168.766C169.624 50 170.446 50.3407 171.053 50.9472C171.659 51.5537 172 52.3763 172 53.234V138.128C172 138.985 171.659 139.808 171.053 140.414C170.446 141.021 169.624 141.362 168.766 141.362ZM26.4681 134.894H165.532V56.4681H26.4681V134.894Z" fill="white"/>
<path d="M81.0599 62.3218H74.5918V129.008H81.0599V62.3218Z" fill="url(#paint0_linear_2039_36587)"/>
<path d="M99.2337 62.3218H92.7656V129.008H99.2337V62.3218Z" fill="url(#paint1_linear_2039_36587)"/>
<path d="M110.973 62.3218H117.441V129.008H110.973V62.3218Z" fill="url(#paint2_linear_2039_36587)"/>
<path d="M47.4899 111.447C47.0214 111.45 46.558 111.351 46.1316 111.156C45.5702 110.897 45.0952 110.481 44.7627 109.96C44.4302 109.438 44.2543 108.832 44.2559 108.213V83.1172C44.2549 82.5022 44.4293 81.8996 44.7587 81.3801C45.088 80.8607 45.5587 80.4459 46.1154 80.1845C46.6722 79.9231 47.2919 79.8259 47.902 79.9043C48.512 79.9827 49.0871 80.2334 49.5597 80.627L64.6303 93.1751C64.9966 93.4786 65.2913 93.8591 65.4937 94.2895C65.696 94.7199 65.8009 95.1897 65.8009 95.6653C65.8009 96.1409 65.696 96.6107 65.4937 97.0411C65.2913 97.4716 64.9966 97.8521 64.6303 98.1555L49.5597 110.704C48.9779 111.186 48.2456 111.449 47.4899 111.447ZM50.724 90.0381V101.293L57.4831 95.6653L50.724 90.0381Z" fill="white"/>
<path d="M144.51 111.447C143.755 111.449 143.022 111.186 142.44 110.704L127.37 98.1555C127.004 97.8521 126.709 97.4716 126.506 97.0411C126.304 96.6107 126.199 96.1409 126.199 95.6653C126.199 95.1897 126.304 94.7199 126.506 94.2895C126.709 93.8591 127.004 93.4786 127.37 93.1751L142.44 80.627C142.913 80.2334 143.488 79.9827 144.098 79.9043C144.708 79.8259 145.328 79.9231 145.885 80.1845C146.441 80.4459 146.912 80.8607 147.241 81.3801C147.571 81.8996 147.745 82.5022 147.744 83.1172V108.213C147.746 108.832 147.57 109.438 147.237 109.96C146.905 110.481 146.43 110.897 145.869 111.156C145.442 111.351 144.979 111.45 144.51 111.447ZM134.517 95.6653L141.276 101.293V90.0381L134.517 95.6653Z" fill="white"/>
<defs>
<linearGradient id="paint0_linear_2039_36587" x1="74.5918" y1="95.6655" x2="117.441" y2="95.6655" gradientUnits="userSpaceOnUse">
<stop stop-color="#32B7FF"/>
<stop offset="0.333333" stop-color="#B986FF"/>
<stop offset="0.666667" stop-color="#14CC92"/>
<stop offset="1" stop-color="#FFBC42"/>
</linearGradient>
<linearGradient id="paint1_linear_2039_36587" x1="74.5918" y1="95.6655" x2="117.441" y2="95.6655" gradientUnits="userSpaceOnUse">
<stop stop-color="#32B7FF"/>
<stop offset="0.333333" stop-color="#B986FF"/>
<stop offset="0.666667" stop-color="#14CC92"/>
<stop offset="1" stop-color="#FFBC42"/>
</linearGradient>
<linearGradient id="paint2_linear_2039_36587" x1="74.5918" y1="95.6655" x2="117.441" y2="95.6655" gradientUnits="userSpaceOnUse">
<stop stop-color="#32B7FF"/>
<stop offset="0.333333" stop-color="#B986FF"/>
<stop offset="0.666667" stop-color="#14CC92"/>
<stop offset="1" stop-color="#FFBC42"/>
</linearGradient>
</defs>
</svg>
