<svg width="192" height="192" viewBox="0 0 192 192" fill="none" xmlns="http://www.w3.org/2000/svg">
<path d="M47.6232 138.622L46.75 132.154C52.4817 131.613 58.0132 129.765 62.9197 126.753C73.624 118.992 96.2616 116.211 108.486 117.052C116.424 118.24 124.128 120.662 131.317 124.231C134.499 125.821 137.823 127.11 141.246 128.079C146.652 128.244 152.062 127.941 157.415 127.174H157.965C159.873 126.98 161.749 126.786 163.56 126.656H165.371V114.982H164.692L158.871 115.532L154.472 115.92L153.987 109.452L158.321 109.096L164.045 108.546L165.533 108.385C166.334 108.258 167.154 108.307 167.935 108.529C168.715 108.751 169.438 109.14 170.054 109.669C170.669 110.198 171.162 110.855 171.498 111.594C171.834 112.332 172.006 113.135 172 113.947V127.174C171.979 128.59 171.424 129.945 170.447 130.97C169.47 131.995 168.142 132.614 166.729 132.704H166.276L164.271 132.865L158.774 133.383H158.192C152.262 134.254 146.262 134.547 140.275 134.256C136.269 133.316 132.384 131.916 128.698 130.084C122.143 126.9 115.143 124.73 107.936 123.649C96.9407 122.808 75.9848 125.298 66.6711 132.057C60.9147 135.689 54.3946 137.936 47.6232 138.622V138.622Z" fill="white"/>
<path fill-rule="evenodd" clip-rule="evenodd" d="M43.3535 120.479V116.243C43.3971 108.043 45.3309 99.9641 49.0046 92.6334C52.6784 85.3027 57.9931 78.9179 64.5358 73.9753L64.8592 73.749C73.9821 68.4118 84.3654 65.6094 94.9348 65.6318C107.234 65.479 119.252 69.3124 129.191 76.5583C138.459 83.3149 145.455 92.7 149.29 103.468H152.08C153.538 103.468 154.936 104.047 155.967 105.078C156.998 106.11 157.578 107.508 157.578 108.966V116.048C157.578 117.509 156.999 118.911 155.969 119.947C154.939 120.983 153.541 121.57 152.08 121.578H139.144C137.683 121.57 136.285 120.983 135.255 119.947C134.225 118.911 133.646 117.509 133.646 116.048V115.055C132.439 114.627 131.144 114.132 129.733 113.591C121.882 110.032 113.355 108.212 104.735 108.255C89.0179 109.193 81.3858 110.098 75.6294 111.747L73.8184 105.538C80.2862 103.727 88.1124 102.757 104.379 101.819C113.913 101.691 123.36 103.645 132.062 107.543C132.626 107.768 133.174 107.981 133.703 108.182C133.871 107.014 134.412 105.923 135.257 105.078C136.288 104.047 137.686 103.468 139.144 103.468H142.4C138.862 94.7528 132.944 87.1707 125.284 81.6126C116.443 75.1977 105.759 71.8255 94.8378 72.0026C85.4928 71.9776 76.3085 74.4327 68.2225 79.1173C62.4948 83.469 57.8466 89.0818 54.6386 95.5203C51.4306 101.959 49.7491 109.05 49.7244 116.243V120.318L43.3535 120.479ZM151.11 115.11H140.114V110.065H151.11V115.11Z" fill="url(#paint0_linear_2039_36612)"/>
<path d="M40.7988 118.538C40.7988 117.632 40.7988 116.759 40.7988 115.854C40.845 99.2804 47.3153 83.3707 58.8493 71.4695C70.3833 59.5683 86.0825 52.6027 102.646 52.0373C119.21 51.4719 135.347 57.3508 147.666 68.4378C159.985 79.5248 167.525 94.9564 168.701 111.488L162.233 111.908C161.378 96.8908 154.679 82.8046 143.569 72.6641C132.459 62.5237 117.822 57.1346 102.789 57.6502C87.7561 58.1658 73.5221 64.5452 63.1333 75.423C52.7445 86.3008 47.0261 100.813 47.202 115.854C47.202 116.662 47.202 117.471 47.202 118.279L40.7988 118.538Z" fill="white"/>
<path d="M68.4462 130.375C58.7304 130.31 49.337 126.882 41.8633 120.673L46.1644 115.984C52.5656 121.166 60.5665 123.966 68.802 123.907L68.4462 130.375Z" fill="white"/>
<path d="M39.0514 139.171C32.1308 139.171 25.3072 137.91 21.7822 134.385C21.1126 133.771 20.6056 133 20.3065 132.143C20.0074 131.285 19.9256 130.366 20.0682 129.469C20.8444 125.362 26.1157 123.001 33.4567 119.767C36.6907 118.441 39.6982 117.051 42.4794 115.531L45.7134 121.19C42.6735 122.872 39.2455 124.424 36.1732 125.718C33.013 126.971 29.9625 128.486 27.0535 130.245C29.9641 132.283 37.2728 133.479 46.8776 132.153L47.7507 138.621C44.866 138.993 41.9601 139.177 39.0514 139.171V139.171Z" fill="white"/>
<defs>
<linearGradient id="paint0_linear_2039_36612" x1="43.3535" y1="93.6034" x2="157.578" y2="93.6034" gradientUnits="userSpaceOnUse">
<stop stop-color="#32B7FF"/>
<stop offset="0.333333" stop-color="#B986FF"/>
<stop offset="0.666667" stop-color="#14CC92"/>
<stop offset="1" stop-color="#FFBC42"/>
</linearGradient>
</defs>
</svg>
