<svg width="192" height="192" viewBox="0 0 192 192" fill="none" xmlns="http://www.w3.org/2000/svg">
<path d="M96.3382 165.688C84.6176 165.684 73.0889 162.712 62.8269 157.049L65.9013 151.669C78.2115 158.406 92.4043 160.884 106.269 158.716C120.134 156.548 132.893 149.855 142.558 139.681C152.224 129.507 158.254 116.422 159.708 102.464C161.163 88.5062 157.962 74.459 150.602 62.5103L147.528 77.8824L141.379 76.6834L145.837 54.3015C145.993 53.5031 146.459 52.7992 147.133 52.344C147.808 51.8887 148.635 51.7193 149.434 51.8727L172 56.3306L170.801 62.4795L155.736 59.4051C162.2 69.979 165.734 82.0823 165.977 94.4731C166.219 106.864 163.16 119.096 157.114 129.914C151.068 140.733 142.252 149.748 131.572 156.034C120.892 162.321 108.731 165.653 96.3382 165.688ZM43.0583 138.879C42.8029 138.909 42.545 138.909 42.2896 138.879L20 133.284L21.5065 127.319L35.8333 130.916C28.149 117.747 24.9909 102.423 26.8422 87.2887C28.6936 72.1543 35.4524 58.0433 46.0846 47.1147C56.7168 36.1861 70.6367 29.0419 85.7144 26.7753C100.792 24.5086 116.197 27.2442 129.573 34.5637L126.498 39.9439C114.235 33.3068 100.131 30.8833 86.3552 33.0461C72.5798 35.209 59.8967 41.8384 50.2575 51.9144C40.6182 61.9903 34.5569 74.9545 33.0062 88.8122C31.4554 102.67 34.5012 116.653 41.6748 128.611L45.6715 112.716L51.6359 114.191L46.0405 136.481C45.8876 137.159 45.5095 137.765 44.9679 138.201C44.4264 138.636 43.7532 138.875 43.0583 138.879Z" fill="white"/>
<path d="M120.657 125.628C117.932 125.626 115.285 124.719 113.131 123.05C110.978 121.381 109.44 119.043 108.758 116.405H83.3944C82.8196 118.631 81.6323 120.652 79.9671 122.237C78.302 123.822 76.2257 124.909 73.9741 125.374C71.7224 125.839 69.3855 125.664 67.2286 124.867C65.0716 124.071 63.1811 122.686 61.7716 120.87C60.362 119.054 59.4899 116.878 59.2542 114.591C59.0186 112.304 59.4287 109.997 60.4382 107.931C61.4477 105.865 63.016 104.124 64.9652 102.905C66.9145 101.685 69.1665 101.037 71.4656 101.033C72.5864 101.032 73.7026 101.176 74.786 101.463L87.6371 79.2044C85.85 77.5125 84.6117 75.3234 84.0822 72.9201C83.5526 70.5169 83.7563 68.01 84.6669 65.7237C85.5775 63.4375 87.153 61.477 89.1898 60.0958C91.2266 58.7146 93.6309 57.9763 96.0918 57.9763C98.5528 57.9763 100.957 58.7146 102.994 60.0958C105.031 61.477 106.606 63.4375 107.517 65.7237C108.427 68.01 108.631 70.5169 108.102 72.9201C107.572 75.3234 106.334 77.5125 104.547 79.2044L117.398 101.463C118.461 101.181 119.556 101.036 120.657 101.033C123.918 101.033 127.046 102.329 129.352 104.635C131.659 106.941 132.954 110.069 132.954 113.331C132.954 116.592 131.659 119.72 129.352 122.026C127.046 124.333 123.918 125.628 120.657 125.628ZM120.657 107.182C119.44 107.182 118.252 107.542 117.24 108.218C116.229 108.894 115.441 109.854 114.976 110.978C114.51 112.101 114.389 113.337 114.626 114.53C114.863 115.723 115.449 116.819 116.309 117.679C117.169 118.538 118.264 119.124 119.457 119.361C120.65 119.599 121.886 119.477 123.01 119.011C124.133 118.546 125.094 117.758 125.769 116.747C126.445 115.736 126.805 114.547 126.805 113.331C126.805 111.7 126.158 110.136 125.004 108.983C123.851 107.83 122.287 107.182 120.657 107.182ZM71.4656 107.182C70.2495 107.182 69.0607 107.542 68.0495 108.218C67.0383 108.894 66.2502 109.854 65.7848 110.978C65.3194 112.101 65.1976 113.337 65.4349 114.53C65.6722 115.723 66.2578 116.819 67.1177 117.679C67.9776 118.538 69.0733 119.124 70.266 119.361C71.4588 119.599 72.6951 119.477 73.8187 119.011C74.9422 118.546 75.9026 117.758 76.5782 116.747C77.2539 115.736 77.6145 114.547 77.6145 113.331C77.6145 112.523 77.4554 111.724 77.1464 110.978C76.8374 110.232 76.3845 109.554 75.8135 108.983C75.2425 108.412 74.5647 107.959 73.8187 107.65C73.0727 107.341 72.2731 107.182 71.4656 107.182ZM83.3944 110.256H108.758C109.317 108.072 110.466 106.083 112.079 104.507L99.1663 82.1559C97.1497 82.6766 95.034 82.6766 93.0174 82.1559L80.1355 104.538C81.726 106.121 82.853 108.109 83.3944 110.287V110.256ZM96.0611 64.1397C94.845 64.1397 93.6561 64.5003 92.645 65.176C91.6338 65.8516 90.8457 66.812 90.3803 67.9355C89.9149 69.0591 89.7931 70.2954 90.0304 71.4882C90.2676 72.6809 90.8533 73.7766 91.7132 74.6365C92.5731 75.4964 93.6687 76.082 94.8615 76.3193C96.0543 76.5566 97.2906 76.4348 98.4142 75.9694C99.5377 75.504 100.498 74.7159 101.174 73.7047C101.849 72.6935 102.21 71.5047 102.21 70.2886C102.21 68.6578 101.562 67.0938 100.409 65.9407C99.2559 64.7875 97.6919 64.1397 96.0611 64.1397Z" fill="url(#paint0_linear_2039_36582)"/>
<defs>
<linearGradient id="paint0_linear_2039_36582" x1="59.1895" y1="91.803" x2="132.954" y2="91.803" gradientUnits="userSpaceOnUse">
<stop stop-color="#32B7FF"/>
<stop offset="0.333333" stop-color="#B986FF"/>
<stop offset="0.666667" stop-color="#14CC92"/>
<stop offset="1" stop-color="#FFBC42"/>
</linearGradient>
</defs>
</svg>
