<svg width="192" height="192" viewBox="0 0 192 192" fill="none" xmlns="http://www.w3.org/2000/svg">
<path d="M97.0211 44.5997L71.3516 65.4517L75.4256 70.4733L101.095 49.6214L97.0211 44.5997Z" fill="white"/>
<path d="M76.4656 122.374L72.3906 127.395L97.053 147.435L101.128 142.415L76.4656 122.374Z" fill="white"/>
<path d="M75.8895 97.9508L73.8438 104.086L140.496 126.337L142.541 120.202L75.8895 97.9508Z" fill="white"/>
<path d="M140.873 65.2495L74.123 87.748L76.1915 93.8927L142.942 71.3942L140.873 65.2495Z" fill="white"/>
<path d="M110.817 48.6889L105.482 52.3413L144.867 109.94L150.202 106.288L110.817 48.6889Z" fill="white"/>
<path d="M152.577 59.1315C141.718 50.5936 124.621 38.1102 124.459 37.9808L128.37 32.7417C128.564 32.7417 145.758 45.4191 156.714 54.054L152.577 59.1315Z" fill="white"/>
<path d="M126.365 53.7634H99.0875C98.2303 53.7634 97.4082 53.4226 96.8021 52.8161C96.196 52.2096 95.8555 51.387 95.8555 50.5293V23.234C95.8555 22.3763 96.196 21.5537 96.8021 20.9472C97.4082 20.3407 98.2303 20 99.0875 20H126.365C127.223 20 128.045 20.3407 128.651 20.9472C129.257 21.5537 129.597 22.3763 129.597 23.234V50.5293C129.597 51.387 129.257 52.2096 128.651 52.8161C128.045 53.4226 127.223 53.7634 126.365 53.7634ZM102.319 47.2953H123.133V26.4681H102.319V47.2953Z" fill="white"/>
<path d="M144.88 82.0559L105.506 139.662L110.841 143.313L150.216 85.7073L144.88 82.0559Z" fill="white"/>
<path d="M128.369 159.257L124.588 154.018C124.749 154.018 141.847 141.406 152.706 132.868L156.585 138.042C145.628 146.58 128.369 159.128 128.369 159.257Z" fill="white"/>
<path d="M126.365 172H99.0875C98.2303 172 97.4082 171.659 96.8021 171.053C96.196 170.446 95.8555 169.624 95.8555 168.766V141.471C95.8555 140.613 96.196 139.791 96.8021 139.184C97.4082 138.578 98.2303 138.237 99.0875 138.237H126.365C127.223 138.237 128.045 138.578 128.651 139.184C129.257 139.791 129.597 140.613 129.597 141.471V168.766C129.597 169.624 129.257 170.446 128.651 171.053C128.045 171.659 127.223 172 126.365 172ZM102.319 165.532H123.133V144.705H102.319V165.532Z" fill="white"/>
<path d="M168.768 138.657H141.49C140.633 138.657 139.811 138.316 139.204 137.71C138.598 137.103 138.258 136.281 138.258 135.423V108.128C138.258 107.27 138.598 106.447 139.204 105.841C139.811 105.234 140.633 104.894 141.49 104.894H168.768C169.625 104.894 170.447 105.234 171.053 105.841C171.659 106.447 172 107.27 172 108.128V135.423C172 136.281 171.659 137.103 171.053 137.71C170.447 138.316 169.625 138.657 168.768 138.657ZM144.722 132.189H165.536V111.362H144.722V132.189Z" fill="white"/>
<path d="M168.768 87.1066H141.49C140.633 87.1066 139.811 86.7659 139.204 86.1594C138.598 85.5529 138.258 84.7303 138.258 83.8726V56.5773C138.258 55.7196 138.598 54.897 139.204 54.2905C139.811 53.684 140.633 53.3433 141.49 53.3433H168.768C169.625 53.3433 170.447 53.684 171.053 54.2905C171.659 54.897 172 55.7196 172 56.5773V83.8726C172 84.7303 171.659 85.5529 171.053 86.1594C170.447 86.7659 169.625 87.1066 168.768 87.1066ZM144.722 80.6385H165.536V59.8113H144.722V80.6385Z" fill="white"/>
<path fill-rule="evenodd" clip-rule="evenodd" d="M20 123.23C20 131.736 35.1257 135.617 49.0879 135.617C63.0501 135.617 78.0789 131.736 78.1758 123.23V70.9359C78.1758 62.4303 63.1471 58.5495 49.0879 58.5495C35.9333 58.5495 21.9298 61.947 20.1824 69.3514H20C20 69.6197 20.015 69.8833 20.0446 70.1424C20.015 70.4023 20 70.6668 20 70.9359V123.23ZM26.464 77.5116V123.23C26.464 124.75 34.2208 129.149 49.0879 129.149C63.9551 129.149 71.7118 124.75 71.7118 123.23V77.1356C66.3339 80.2619 57.6983 81.7378 49.0879 81.7378C40.8303 81.7378 32.1658 80.3803 26.464 77.5116ZM26.9253 70.1461C28.794 72.0248 36.3181 75.2697 49.0879 75.2697C61.8169 75.2697 69.3336 72.0456 71.2324 70.1642C69.3177 68.2891 61.715 65.0176 49.0879 65.0176C36.3902 65.0176 28.8041 68.2682 26.9253 70.1461Z" fill="url(#paint0_linear_2039_36577)"/>
<defs>
<linearGradient id="paint0_linear_2039_36577" x1="20" y1="97.0839" x2="78.1758" y2="97.0839" gradientUnits="userSpaceOnUse">
<stop stop-color="#32B7FF"/>
<stop offset="0.333333" stop-color="#B986FF"/>
<stop offset="0.666667" stop-color="#14CC92"/>
<stop offset="1" stop-color="#FFBC42"/>
</linearGradient>
</defs>
</svg>
