<svg width="192" height="192" viewBox="0 0 192 192" fill="none" xmlns="http://www.w3.org/2000/svg">
<path d="M172 80.7924V86.8687H145.204C75.0541 86.8687 20.0946 59.2218 20.0946 23.8582C20.0846 22.578 20.1659 21.2988 20.3376 20.0302H26.4138C26.207 21.2956 26.1054 22.576 26.11 23.8582C26.11 55.2419 79.5201 80.7924 145.204 80.7924H172Z" fill="white"/>
<path d="M171.997 92.9452V99.0214H134.81C75.3542 99.0214 32.608 108.652 20.0909 124.815V116.673C33.3675 105.067 57.9762 99.0518 82.0077 95.9833C57.9155 92.9452 33.3979 86.8689 20.0605 75.5368V66.6655C32.4257 82.889 74.3516 92.6413 132.775 92.9452H171.997Z" fill="url(#paint0_linear_2039_36602)"/>
<path d="M171.997 68.6098V74.6861H159.419C98.4138 74.6861 54.1484 54.0269 54.1484 25.5597C54.1484 25.5597 54.1484 22.0659 54.1484 20H60.5589C60.5589 21.4583 60.5589 24.466 60.5589 25.5597C60.5589 49.8647 103.092 68.6098 159.45 68.6098H171.997Z" fill="white"/>
<path d="M171.998 105.098V111.174H145.202C79.4872 111.174 26.0468 136.816 26.0468 168.199C26.046 169.45 26.1374 170.699 26.3202 171.936H20.244C20.0714 170.698 19.9901 169.449 20.001 168.199C20.001 132.805 75.0212 105.098 145.262 105.098H171.998Z" fill="white"/>
<path d="M171.996 117.25V123.327H159.418C102.97 123.327 60.4063 141.555 60.4063 166.073C60.4063 167.258 60.4063 170.691 60.4063 171.937H54.3301C54.3301 169.931 54.3301 166.134 54.3301 166.073C54.3301 137.758 98.565 117.25 159.479 117.25H171.996Z" fill="white"/>
<defs>
<linearGradient id="paint0_linear_2039_36602" x1="20.0605" y1="95.7408" x2="171.997" y2="95.7408" gradientUnits="userSpaceOnUse">
<stop stop-color="#32B7FF"/>
<stop offset="0.333333" stop-color="#B986FF"/>
<stop offset="0.666667" stop-color="#14CC92"/>
<stop offset="1" stop-color="#FFBC42"/>
</linearGradient>
</defs>
</svg>
