<svg width="192" height="192" viewBox="0 0 192 192" fill="none" xmlns="http://www.w3.org/2000/svg">
<path fill-rule="evenodd" clip-rule="evenodd" d="M116.925 141.665H141.472C142.329 141.665 143.152 141.324 143.758 140.718C144.365 140.111 144.706 139.289 144.706 138.431V117.216C144.706 116.358 144.365 115.535 143.758 114.929C143.152 114.322 142.329 113.982 141.472 113.982H133.581L99.235 40.0514C98.9799 39.5 98.5746 39.0315 98.0656 38.6998C97.5565 38.368 96.9643 38.1864 96.3567 38.1757H65.6657C64.808 38.1757 63.9854 38.5164 63.3789 39.1229C62.7724 39.7294 62.4316 40.552 62.4316 41.4097V62.6574C62.4316 63.5151 62.7724 64.3377 63.3789 64.9442C63.9854 65.5507 64.808 65.8914 65.6657 65.8914H79.5721L113.982 139.822C114.247 140.377 114.664 140.845 115.185 141.172C115.707 141.498 116.31 141.669 116.925 141.665ZM138.238 135.197H118.833L84.5848 61.2991C84.325 60.7377 83.9097 60.2626 83.3881 59.9302C82.8664 59.5977 82.2604 59.4218 81.6418 59.4233H68.9321V44.6438H94.3193L128.632 118.574C128.892 119.135 129.308 119.61 129.829 119.943C130.351 120.275 130.957 120.451 131.575 120.45H138.238V135.197Z" fill="url(#paint0_linear_2039_36607)"/>
<path fill-rule="evenodd" clip-rule="evenodd" d="M48.4905 141.665H74.7509C75.3605 141.663 75.9572 141.489 76.4722 141.163C76.9871 140.837 77.3995 140.372 77.6616 139.822L92.0207 109.454C92.2276 109.019 92.335 108.544 92.335 108.063C92.335 107.582 92.2276 107.107 92.0207 106.673L78.8582 79.5067C78.5915 78.9624 78.1772 78.504 77.6626 78.1837C77.1479 77.8635 76.5537 77.6944 75.9475 77.6956C75.338 77.6973 74.7413 77.8713 74.2263 78.1974C73.7113 78.5236 73.299 78.9887 73.0369 79.539L45.5799 137.04C45.3454 137.533 45.2392 138.076 45.2712 138.62C45.3031 139.165 45.4722 139.692 45.7626 140.154C46.053 140.615 46.4554 140.996 46.9323 141.26C47.4093 141.524 47.9453 141.663 48.4905 141.665ZM72.6812 135.197H53.6326L75.9152 88.4003L85.6173 108.096L72.6812 135.197Z" fill="url(#paint1_linear_2039_36607)"/>
<path d="M96 172C80.9686 172 66.2748 167.543 53.7767 159.192C41.2786 150.841 31.5374 138.971 25.7852 125.084C20.0329 111.197 18.5279 95.9157 21.4604 81.1732C24.3928 66.4306 31.6311 52.8887 42.2599 42.2599C52.8887 31.6311 66.4306 24.3928 81.1732 21.4604C95.9157 18.5279 111.197 20.0329 125.084 25.7852C138.971 31.5374 150.841 41.2786 159.192 53.7767C167.543 66.2748 172 80.9686 172 96C171.983 116.151 163.97 135.472 149.721 149.721C135.472 163.97 116.151 171.983 96 172ZM96 26.4681C82.2479 26.4681 68.8046 30.5461 57.3702 38.1864C45.9357 45.8266 37.0236 56.686 31.7609 69.3913C26.4982 82.0966 25.1212 96.0772 27.8042 109.565C30.4871 123.053 37.1093 135.442 46.8335 145.166C56.5577 154.891 68.9471 161.513 82.435 164.196C95.9229 166.879 109.903 165.502 122.609 160.239C135.314 154.976 146.173 146.064 153.814 134.63C161.454 123.195 165.532 109.752 165.532 96C165.506 77.5669 158.172 59.8961 145.138 46.8619C132.104 33.8277 114.433 26.4938 96 26.4681Z" fill="white"/>
<defs>
<linearGradient id="paint0_linear_2039_36607" x1="45.2656" y1="89.9215" x2="144.706" y2="89.9215" gradientUnits="userSpaceOnUse">
<stop stop-color="#32B7FF"/>
<stop offset="0.333333" stop-color="#B986FF"/>
<stop offset="0.666667" stop-color="#14CC92"/>
<stop offset="1" stop-color="#FFBC42"/>
</linearGradient>
<linearGradient id="paint1_linear_2039_36607" x1="45.2656" y1="89.9215" x2="144.706" y2="89.9215" gradientUnits="userSpaceOnUse">
<stop stop-color="#32B7FF"/>
<stop offset="0.333333" stop-color="#B986FF"/>
<stop offset="0.666667" stop-color="#14CC92"/>
<stop offset="1" stop-color="#FFBC42"/>
</linearGradient>
</defs>
</svg>
