<svg width="192" height="192" viewBox="0 0 192 192" fill="none" xmlns="http://www.w3.org/2000/svg">
<path d="M168.766 141.362H23.234C22.3763 141.362 21.5537 141.021 20.9472 140.414C20.3407 139.808 20 138.985 20 138.128V53.234C20 52.3763 20.3407 51.5537 20.9472 50.9472C21.5537 50.3407 22.3763 50 23.234 50H168.766C169.624 50 170.446 50.3407 171.053 50.9472C171.659 51.5537 172 52.3763 172 53.234V138.128C172 138.985 171.659 139.808 171.053 140.414C170.446 141.021 169.624 141.362 168.766 141.362ZM26.4681 134.894H165.532V56.4681H26.4681V134.894Z" fill="white"/>
<path fill-rule="evenodd" clip-rule="evenodd" d="M88.8519 81.6194V110.481C88.8519 111.872 87.7243 113 86.3333 113H43.5185C42.1276 113 41 111.872 41 110.481V81.5185C41 80.8506 41.3071 80.1019 41.7794 79.6296C42.2517 79.1573 43.0003 79 43.6683 79H86.4831C87.151 79 87.7499 79.1573 88.2222 79.6296C88.6945 80.1019 88.8519 80.9514 88.8519 81.6194ZM46.1868 107.963H83.8148V87.2766L66.6382 103.354C66.1738 103.789 65.5619 104.032 64.9256 104.034C64.2894 104.032 63.6775 103.789 63.213 103.354L46.3175 87.5397L46.1868 107.963ZM50.0582 84.1379H79.7931L64.9256 98.0653L50.0582 84.1379Z" fill="url(#paint0_linear_2141_37394)"/>
<path fill-rule="evenodd" clip-rule="evenodd" d="M151.815 81.6194V110.481C151.815 111.872 150.687 113 149.296 113H106.481C105.09 113 103.963 111.872 103.963 110.481V81.5185C103.963 80.8506 104.27 80.1019 104.742 79.6296C105.215 79.1573 105.963 79 106.631 79H149.446C150.114 79 150.713 79.1573 151.185 79.6296C151.657 80.1019 151.815 80.9514 151.815 81.6194ZM109.15 107.963H146.778V87.2766L129.601 103.354C129.137 103.789 128.525 104.032 127.889 104.034C127.252 104.032 126.64 103.789 126.176 103.354L109.28 87.5397L109.15 107.963ZM113.021 84.1379H142.756L127.889 98.0653L113.021 84.1379Z" fill="url(#paint1_linear_2141_37394)"/>
<defs>
<linearGradient id="paint0_linear_2141_37394" x1="41" y1="96.0004" x2="88.8519" y2="96.0004" gradientUnits="userSpaceOnUse">
<stop stop-color="#32B7FF"/>
<stop offset="0.333333" stop-color="#B986FF"/>
<stop offset="0.666667" stop-color="#14CC92"/>
<stop offset="1" stop-color="#FFBC42"/>
</linearGradient>
<linearGradient id="paint1_linear_2141_37394" x1="103.963" y1="96.0004" x2="151.815" y2="96.0004" gradientUnits="userSpaceOnUse">
<stop stop-color="#32B7FF"/>
<stop offset="0.333333" stop-color="#B986FF"/>
<stop offset="0.666667" stop-color="#14CC92"/>
<stop offset="1" stop-color="#FFBC42"/>
</linearGradient>
</defs>
</svg>
