<svg width="192" height="192" viewBox="0 0 192 192" fill="none" xmlns="http://www.w3.org/2000/svg">
<path d="M144.639 77.7593V59.5185C144.639 58.7122 144.318 57.939 143.748 57.3688C143.178 56.7987 142.405 56.4784 141.599 56.4784H99.0391V50.0941C102.73 49.3407 106.009 47.2437 108.242 44.2097C110.474 41.1756 111.501 37.4207 111.122 33.6728C110.743 29.925 108.987 26.4512 106.193 23.9249C103.399 21.3987 99.7659 20 95.9992 20C92.2324 20 88.5998 21.3987 85.8057 23.9249C83.0116 26.4512 81.2549 29.925 80.8763 33.6728C80.4977 37.4207 81.5242 41.1756 83.7566 44.2097C85.9891 47.2437 89.2686 49.3407 92.9592 50.0941V56.4784H50.3997C49.5934 56.4784 48.8202 56.7987 48.2501 57.3688C47.68 57.939 47.3597 58.7122 47.3597 59.5185V71.679H23.04C22.2337 71.679 21.4605 71.9993 20.8904 72.5694C20.3203 73.1396 20 73.9128 20 74.7191V89.9198C20 90.7261 20.3203 91.4993 20.8904 92.0695C21.4605 92.6396 22.2337 92.9599 23.04 92.9599H47.3597V99.0401H23.04C22.2337 99.0401 21.4605 99.3604 20.8904 99.9306C20.3203 100.501 20 101.274 20 102.08V117.281C20 118.087 20.3203 118.86 20.8904 119.431C21.4605 120.001 22.2337 120.321 23.04 120.321H47.3597V132.481C47.3597 133.288 47.68 134.061 48.2501 134.631C48.8202 135.201 49.5934 135.522 50.3997 135.522H92.9592V141.906C89.2686 142.659 85.9891 144.756 83.7566 147.79C81.5242 150.824 80.4977 154.579 80.8763 158.327C81.2549 162.075 83.0116 165.549 85.8057 168.075C88.5998 170.601 92.2324 172 95.9992 172C99.7659 172 103.399 170.601 106.193 168.075C108.987 165.549 110.743 162.075 111.122 158.327C111.501 154.579 110.474 150.824 108.242 147.79C106.009 144.756 102.73 142.659 99.0391 141.906V135.522H141.599C142.405 135.522 143.178 135.201 143.748 134.631C144.318 134.061 144.639 133.288 144.639 132.481V117.281H138.559V129.441H53.4396V120.321H77.7594C78.5656 120.321 79.3389 120.001 79.909 119.431C80.4791 118.86 80.7993 118.087 80.7993 117.281V102.08C80.7993 101.274 80.4791 100.501 79.909 99.9306C79.3389 99.3604 78.5656 99.0401 77.7594 99.0401H53.4396V92.9599H77.7594C78.5656 92.9599 79.3389 92.6396 79.909 92.0695C80.4791 91.4993 80.7993 90.7261 80.7993 89.9198V74.7191C80.7993 73.9128 80.4791 73.1396 79.909 72.5694C79.3389 71.9993 78.5656 71.679 77.7594 71.679H53.4396V62.5586H138.559V77.7593H144.639ZM105.119 156.802C105.119 158.606 104.584 160.37 103.582 161.869C102.58 163.369 101.156 164.538 99.4892 165.229C97.8228 165.919 95.9891 166.1 94.22 165.748C92.4509 165.396 90.8259 164.527 89.5504 163.252C88.275 161.976 87.4064 160.351 87.0545 158.582C86.7026 156.813 86.8832 154.979 87.5735 153.312C88.2638 151.646 89.4327 150.221 90.9324 149.219C92.4322 148.217 94.1954 147.682 95.9992 147.682C98.4179 147.682 100.738 148.643 102.448 150.353C104.158 152.064 105.119 154.384 105.119 156.802ZM74.7194 105.12V114.241H26.0799V105.12H74.7194ZM74.7194 77.7593V86.8796H26.0799V77.7593H74.7194ZM86.8793 35.1975C86.8793 33.3937 87.4142 31.6303 88.4163 30.1305C89.4184 28.6307 90.8427 27.4617 92.5091 26.7714C94.1756 26.0811 96.0093 25.9005 97.7784 26.2524C99.5475 26.6043 101.172 27.4729 102.448 28.7484C103.723 30.0239 104.592 31.649 104.944 33.4182C105.296 35.1874 105.115 37.0212 104.425 38.6877C103.735 40.3543 102.566 41.7787 101.066 42.7808C99.5662 43.783 97.8029 44.3179 95.9992 44.3179C93.5804 44.3179 91.2607 43.357 89.5504 41.6466C87.8401 39.9362 86.8793 37.6164 86.8793 35.1975Z" fill="white"/>
<path d="M168.96 83.8394H108.161C107.355 83.8394 106.582 84.1597 106.011 84.7298C105.441 85.2999 105.121 86.0732 105.121 86.8795V108.16C105.121 108.967 105.441 109.74 106.011 110.31C106.582 110.88 107.355 111.2 108.161 111.2H168.96C169.767 111.2 170.54 110.88 171.11 110.31C171.68 109.74 172 108.967 172 108.16V86.8795C172 86.0732 171.68 85.2999 171.11 84.7298C170.54 84.1597 169.767 83.8394 168.96 83.8394ZM165.92 105.12H111.201V89.9196H165.92V105.12Z" fill="url(#paint0_linear_2039_36592)"/>
<defs>
<linearGradient id="paint0_linear_2039_36592" x1="105.121" y1="97.5202" x2="172" y2="97.5202" gradientUnits="userSpaceOnUse">
<stop stop-color="#32B7FF"/>
<stop offset="0.333333" stop-color="#B986FF"/>
<stop offset="0.666667" stop-color="#14CC92"/>
<stop offset="1" stop-color="#FFBC42"/>
</linearGradient>
</defs>
</svg>
