<?xml version="1.0" encoding="UTF-8" standalone="no"?>
<svg
   width="180"
   height="192"
   viewBox="0 0 180 192"
   fill="none"
   version="1.1"
   id="svg12"
   sodipodi:docname="logo_dark_icon.svg"
   inkscape:version="1.2.1 (9c6d41e410, 2022-07-14)"
   xmlns:inkscape="http://www.inkscape.org/namespaces/inkscape"
   xmlns:sodipodi="http://sodipodi.sourceforge.net/DTD/sodipodi-0.dtd"
   xmlns="http://www.w3.org/2000/svg"
   xmlns:svg="http://www.w3.org/2000/svg">
  <defs
     id="defs16" />
  <sodipodi:namedview
     id="namedview14"
     pagecolor="#ffffff"
     bordercolor="#666666"
     borderopacity="1.0"
     inkscape:showpageshadow="2"
     inkscape:pageopacity="0.0"
     inkscape:pagecheckerboard="0"
     inkscape:deskcolor="#d1d1d1"
     showgrid="false"
     inkscape:zoom="1.475"
     inkscape:cx="-40.677966"
     inkscape:cy="80"
     inkscape:window-width="1728"
     inkscape:window-height="1011"
     inkscape:window-x="0"
     inkscape:window-y="0"
     inkscape:window-maximized="1"
     inkscape:current-layer="svg12" />
  <rect
     style="fill:#01121c;fill-opacity:1"
     id="rect181"
     width="180"
     height="192"
     x="0"
     y="0"
     rx="12"
     ry="12" />
  <g
     id="g179"
     transform="translate(15.125232,16)">
    <path
       d="m 106.68,120.154 c -3.424,-3.424 -8.0672,-5.348 -12.9092,-5.348 -4.84,0.003 -9.4808,1.928 -12.9021,5.352 -3.4214,3.423 -5.3433,8.065 -5.3433,12.905 0,2.397 0.4722,4.772 1.3897,6.986 0.9175,2.215 2.2623,4.228 3.9576,5.923 1.6952,1.696 3.7078,3.04 5.9228,3.958 2.215,0.917 4.589,1.39 6.9865,1.39 3.6749,-0.003 7.235,-1.113 10.234,-3.146 L 112.027,160 v -26.837 c 0,-0.033 0,-0.067 0,-0.1 0,-4.842 -1.923,-9.486 -5.347,-12.909 z"
       fill="#ffffff"
       id="path2" />
    <path
       d="M 131.039,0.00564303 H 54.8763 C 50.0358,-0.114663 45.3458,1.69283 41.838,5.03049 38.3302,8.36816 36.292,12.9626 36.1717,17.8031 c -0.1203,4.8404 1.6871,9.5305 5.0248,13.0383 3.3377,3.5078 7.9321,5.546 12.7726,5.6663 0.3061,0 0.6085,0 0.9072,0 h 76.1627 c 2.397,0.0596 4.782,-0.3535 7.019,-1.2157 2.237,-0.8621 4.282,-2.1565 6.019,-3.8091 1.737,-1.6527 3.132,-3.6312 4.104,-5.8228 0.972,-2.1915 1.503,-4.553 1.563,-6.9498 0.059,-2.3968 -0.354,-4.7818 -1.216,-7.0189 -0.862,-2.23712 -2.157,-4.28251 -3.809,-6.0194 -1.653,-1.73688 -3.631,-3.13125 -5.823,-4.10349 -2.191,-0.972233 -4.553,-1.5032973 -6.95,-1.56286697 z"
       fill="#ffffff"
       id="path4" />
    <path
       fill-rule="evenodd"
       clip-rule="evenodd"
       d="m 125.395,6.05967 c -0.847,0.84731 -0.847,2.22107 0,3.06837 l 8.591,8.59096 -8.591,8.5909 c -0.847,0.8473 -0.847,2.221 0,3.0683 0.848,0.8473 2.221,0.8473 3.069,0 l 10.125,-10.1251 c 0.847,-0.8473 0.847,-2.221 0,-3.0683 L 128.464,6.05967 c -0.848,-0.8473 -2.221,-0.8473 -3.069,0 z"
       fill="#ffffff"
       id="path6" />
    <path
       d="M 94.873,57.8633 H 18.7103 C 13.8698,57.743 9.17981,59.5505 5.672,62.8882 2.1642,66.2258 0.125949,70.8203 0.00564303,75.6607 -0.114663,80.5012 1.69283,85.1912 5.03049,88.699 c 3.33767,3.5078 7.93211,5.5461 12.77261,5.6664 0.3061,0 0.6085,0 0.9072,0 H 94.873 c 2.3967,0.0596 4.7818,-0.3535 7.019,-1.2157 2.237,-0.8622 4.282,-2.1565 6.019,-3.8092 1.737,-1.6526 3.132,-3.6312 4.104,-5.8227 0.972,-2.1915 1.503,-4.5531 1.563,-6.9498 0.059,-2.3968 -0.354,-4.7818 -1.216,-7.0189 -0.862,-2.2371 -2.157,-4.2825 -3.809,-6.0194 -1.653,-1.7369 -3.631,-3.1313 -5.823,-4.1035 -2.191,-0.9723 -4.553,-1.5033 -6.9498,-1.5629 z"
       fill="#32b7ff"
       id="path8" />
    <path
       fill-rule="evenodd"
       clip-rule="evenodd"
       d="m 24.677,64.8077 c 0.8473,0.8473 0.8473,2.2211 0,3.0684 l -8.5909,8.5909 8.5909,8.5909 c 0.8473,0.8473 0.8473,2.2211 0,3.0684 -0.8473,0.8473 -2.221,0.8473 -3.0683,0 L 11.4836,78.0012 c -0.8473,-0.8473 -0.8473,-2.2211 0,-3.0684 L 21.6087,64.8077 c 0.8473,-0.8473 2.221,-0.8473 3.0683,0 z"
       fill="#01121c"
       id="path10" />
  </g>
</svg>
