<svg width="150" height="160" viewBox="0 0 150 160" fill="none" xmlns="http://www.w3.org/2000/svg">
<path d="M106.68 120.154C103.256 116.73 98.6128 114.806 93.7709 114.806C88.9308 114.809 84.29 116.734 80.8687 120.158C77.4473 123.581 75.5254 128.223 75.5254 133.063C75.5254 135.461 75.9976 137.835 76.9151 140.05C77.8326 142.265 79.1774 144.277 80.8727 145.973C82.5679 147.668 84.5805 149.013 86.7955 149.93C89.0105 150.848 91.3845 151.32 93.782 151.32C97.457 151.318 101.017 150.207 104.016 148.174L112.027 160V133.163C112.027 133.13 112.028 133.096 112.028 133.063C112.028 128.221 110.104 123.578 106.68 120.154Z" fill="#01121C"/>
<path d="M131.037 0.00564303H54.8744C50.0339 -0.114663 45.3439 1.69283 41.8361 5.0305C38.3283 8.36816 36.29 12.9626 36.1697 17.8031C36.0494 22.6436 37.8569 27.3336 41.1946 30.8414C44.5322 34.3492 49.1267 36.3874 53.9671 36.5078C54.2733 36.5078 54.5757 36.5078 54.8744 36.5078H131.037C133.434 36.5673 135.819 36.1542 138.056 35.2921C140.293 34.4299 142.339 33.1355 144.075 31.4829C145.812 29.8302 147.207 27.8517 148.179 25.6602C149.151 23.4686 149.682 21.1071 149.742 18.7103C149.801 16.3136 149.388 13.9285 148.526 11.6914C147.664 9.45429 146.37 7.4089 144.717 5.67201C143.064 3.93512 141.086 2.54075 138.894 1.56851C136.703 0.596277 134.341 0.0652127 131.944 0.00564303H131.037Z" fill="#01121C"/>
<path fill-rule="evenodd" clip-rule="evenodd" d="M125.393 6.05961C124.546 6.90692 124.546 8.28068 125.393 9.12798L133.984 17.7189L125.393 26.3098C124.546 27.1571 124.546 28.5309 125.393 29.3782C126.241 30.2255 127.614 30.2255 128.462 29.3782L138.587 19.2531C139.434 18.4058 139.434 17.032 138.587 16.1847L128.462 6.05961C127.614 5.21231 126.241 5.21231 125.393 6.05961Z" fill="#01121C"/>
<path d="M94.873 57.8634H18.7103C13.8698 57.7431 9.17981 59.5506 5.67201 62.8883C2.1642 66.2259 0.12595 70.8204 0.00564303 75.6608C-0.114663 80.5013 1.69283 85.1913 5.0305 88.6991C8.36817 92.207 12.9626 94.2452 17.8031 94.3655C18.1092 94.3655 18.4116 94.3655 18.7103 94.3655H94.873C97.2698 94.4251 99.6548 94.012 101.892 93.1498C104.129 92.2877 106.174 90.9933 107.911 89.3407C109.648 87.688 111.043 85.7094 112.015 83.5179C112.987 81.3264 113.518 78.9648 113.578 76.5681C113.637 74.1713 113.224 71.7863 112.362 69.5492C111.5 67.3121 110.206 65.2667 108.553 63.5298C106.9 61.7929 104.922 60.3985 102.73 59.4263C100.539 58.454 98.1771 57.923 95.7803 57.8634H94.873Z" fill="#32B7FF"/>
<path fill-rule="evenodd" clip-rule="evenodd" d="M24.677 64.8078C25.5243 65.6551 25.5243 67.0288 24.677 67.8762L16.0861 76.4671L24.677 85.058C25.5243 85.9053 25.5243 87.2791 24.677 88.1264C23.8297 88.9737 22.456 88.9737 21.6087 88.1264L11.4835 78.0013C10.6362 77.154 10.6362 75.7802 11.4835 74.9329L21.6087 64.8078C22.456 63.9605 23.8297 63.9605 24.677 64.8078Z" fill="white"/>
</svg>
