<svg width="24" height="24" viewBox="0 0 24 24" xmlns="http://www.w3.org/2000/svg">
<path d="M8.29 20.2534C15.837 20.2534 19.965 14.0004 19.965 8.5784C19.965 8.4004 19.965 8.2234 19.953 8.0484C20.7562 7.46693 21.4493 6.74701 22 5.9224C21.2511 6.2544 20.4566 6.47216 19.643 6.5684C20.4996 6.05546 21.1408 5.24875 21.447 4.2984C20.6417 4.77628 19.7607 5.11313 18.842 5.2944C18.2234 4.63616 17.405 4.20023 16.5136 4.0541C15.6222 3.90797 14.7075 4.0598 13.9111 4.48607C13.1147 4.91234 12.4811 5.58927 12.1083 6.41206C11.7355 7.23485 11.6444 8.15758 11.849 9.0374C10.2176 8.95564 8.6216 8.53172 7.16465 7.79317C5.70769 7.05461 4.42233 6.01792 3.392 4.7504C2.86732 5.6536 2.70659 6.72282 2.94254 7.74036C3.17848 8.75791 3.79337 9.64728 4.662 10.2274C4.00926 10.2085 3.37063 10.0329 2.8 9.7154V9.7674C2.80039 10.7147 3.1284 11.6327 3.7284 12.3658C4.3284 13.0988 5.16347 13.6018 6.092 13.7894C5.48781 13.9541 4.85389 13.9781 4.239 13.8594C4.50116 14.6749 5.01168 15.388 5.69913 15.899C6.38658 16.41 7.21657 16.6934 8.073 16.7094C7.22212 17.378 6.24779 17.8722 5.20573 18.1639C4.16367 18.4556 3.07432 18.539 2 18.4094C3.8766 19.6137 6.06019 20.2525 8.29 20.2494" fill="#FFFFFF"/>
</svg>
