<svg width="190" height="197" viewBox="0 0 190 197" fill="none" xmlns="http://www.w3.org/2000/svg">
<rect width="190" height="197" rx="30" fill="white"/>
<path d="M121.68 140.154C118.256 136.73 113.613 134.806 108.771 134.806C103.931 134.809 99.29 136.734 95.8687 140.158C92.4473 143.581 90.5254 148.223 90.5254 153.063C90.5254 155.461 90.9976 157.835 91.9151 160.05C92.8326 162.265 94.1774 164.277 95.8727 165.972C97.5679 167.668 99.5805 169.013 101.796 169.93C104.011 170.847 106.385 171.32 108.782 171.32C112.457 171.317 116.017 170.207 119.016 168.174L127.027 180V153.163C127.027 153.13 127.028 153.096 127.028 153.063C127.028 148.221 125.104 143.577 121.68 140.154Z" fill="#01121C"/>
<path d="M146.037 20.0056H69.8744C65.0339 19.8853 60.3439 21.6928 56.8361 25.0305C53.3283 28.3682 51.29 32.9626 51.1697 37.8031C51.0494 42.6436 52.8569 47.3336 56.1946 50.8414C59.5322 54.3492 64.1267 56.3874 68.9671 56.5078C69.2733 56.5078 69.5757 56.5078 69.8744 56.5078H146.037C148.434 56.5673 150.819 56.1542 153.056 55.2921C155.293 54.4299 157.339 53.1355 159.075 51.4829C160.812 49.8302 162.207 47.8517 163.179 45.6602C164.151 43.4686 164.682 41.1071 164.742 38.7103C164.801 36.3136 164.388 33.9285 163.526 31.6914C162.664 29.4543 161.37 27.4089 159.717 25.672C158.064 23.9351 156.086 22.5408 153.894 21.5685C151.703 20.5963 149.341 20.0652 146.944 20.0056H146.037Z" fill="#01121C"/>
<path fill-rule="evenodd" clip-rule="evenodd" d="M140.393 26.0596C139.546 26.9069 139.546 28.2806 140.393 29.1279L148.984 37.7188L140.393 46.3098C139.546 47.1571 139.546 48.5308 140.393 49.3781C141.241 50.2254 142.614 50.2254 143.462 49.3781L153.587 39.253C154.434 38.4057 154.434 37.032 153.587 36.1847L143.462 26.0596C142.614 25.2122 141.241 25.2122 140.393 26.0596Z" fill="#01121C"/>
<path d="M109.873 77.8633H33.7103C28.8698 77.743 24.1798 79.5505 20.672 82.8882C17.1642 86.2258 15.1259 90.8203 15.0056 95.6607C14.8853 100.501 16.6928 105.191 20.0305 108.699C23.3682 112.207 27.9626 114.245 32.8031 114.365C33.1092 114.365 33.4116 114.365 33.7103 114.365H109.873C112.27 114.425 114.655 114.012 116.892 113.15C119.129 112.288 121.174 110.993 122.911 109.341C124.648 107.688 126.043 105.709 127.015 103.518C127.987 101.326 128.518 98.9647 128.578 96.568C128.637 94.1712 128.224 91.7862 127.362 89.5491C126.5 87.312 125.206 85.2666 123.553 83.5297C121.9 81.7928 119.922 80.3984 117.73 79.4262C115.539 78.4539 113.177 77.9229 110.78 77.8633H109.873Z" fill="#32B7FF"/>
<path fill-rule="evenodd" clip-rule="evenodd" d="M39.677 84.8076C40.5243 85.6549 40.5243 87.0287 39.677 87.876L31.0861 96.4669L39.677 105.058C40.5243 105.905 40.5243 107.279 39.677 108.126C38.8297 108.973 37.456 108.973 36.6087 108.126L26.4835 98.0011C25.6362 97.1538 25.6362 95.78 26.4835 94.9327L36.6087 84.8076C37.456 83.9603 38.8297 83.9603 39.677 84.8076Z" fill="white"/>
</svg>
