<svg width="771" height="207" viewBox="0 0 771 207" fill="none" xmlns="http://www.w3.org/2000/svg">
<rect width="771" height="207" rx="30" fill="#06283D"/>
<path d="M403.68 153.154C400.256 149.73 395.613 147.806 390.771 147.806C385.931 147.809 381.29 149.734 377.869 153.158C374.447 156.581 372.525 161.223 372.525 166.063C372.525 168.461 372.998 170.835 373.915 173.05C374.833 175.265 376.177 177.277 377.873 178.972C379.568 180.668 381.581 182.013 383.796 182.93C386.011 183.847 388.385 184.32 390.782 184.32C394.457 184.317 398.017 183.207 401.016 181.174L409.027 193V166.163C409.027 166.13 409.028 166.096 409.028 166.063C409.028 161.221 407.104 156.577 403.68 153.154Z" fill="white"/>
<path d="M428.037 33.0056H351.874C347.034 32.8853 342.344 34.6928 338.836 38.0305C335.328 41.3682 333.29 45.9626 333.17 50.8031C333.049 55.6436 334.857 60.3336 338.195 63.8414C341.532 67.3492 346.127 69.3874 350.967 69.5078C351.273 69.5078 351.576 69.5078 351.874 69.5078H428.037C430.434 69.5673 432.819 69.1542 435.056 68.2921C437.293 67.4299 439.339 66.1355 441.075 64.4829C442.812 62.8302 444.207 60.8517 445.179 58.6602C446.151 56.4686 446.682 54.1071 446.742 51.7103C446.801 49.3136 446.388 46.9285 445.526 44.6914C444.664 42.4543 443.37 40.4089 441.717 38.672C440.064 36.9351 438.086 35.5408 435.894 34.5685C433.703 33.5963 431.341 33.0652 428.944 33.0056H428.037Z" fill="white"/>
<path fill-rule="evenodd" clip-rule="evenodd" d="M422.393 39.0596C421.546 39.9069 421.546 41.2806 422.393 42.1279L430.984 50.7188L422.393 59.3098C421.546 60.1571 421.546 61.5308 422.393 62.3781C423.241 63.2254 424.614 63.2254 425.462 62.3781L435.587 52.253C436.434 51.4057 436.434 50.032 435.587 49.1847L425.462 39.0596C424.614 38.2122 423.241 38.2122 422.393 39.0596Z" fill="white"/>
<path d="M391.873 90.8633H315.71C310.87 90.743 306.18 92.5505 302.672 95.8882C299.164 99.2258 297.126 103.82 297.006 108.661C296.885 113.501 298.693 118.191 302.03 121.699C305.368 125.207 309.963 127.245 314.803 127.365C315.109 127.365 315.412 127.365 315.71 127.365H391.873C394.27 127.425 396.655 127.012 398.892 126.15C401.129 125.288 403.174 123.993 404.911 122.341C406.648 120.688 408.043 118.709 409.015 116.518C409.987 114.326 410.518 111.965 410.578 109.568C410.637 107.171 410.224 104.786 409.362 102.549C408.5 100.312 407.206 98.2666 405.553 96.5297C403.9 94.7928 401.922 93.3984 399.73 92.4262C397.539 91.4539 395.177 90.9229 392.78 90.8633H391.873Z" fill="#32B7FF"/>
<path fill-rule="evenodd" clip-rule="evenodd" d="M321.677 97.8076C322.524 98.6549 322.524 100.029 321.677 100.876L313.086 109.467L321.677 118.058C322.524 118.905 322.524 120.279 321.677 121.126C320.83 121.973 319.456 121.973 318.609 121.126L308.484 111.001C307.636 110.154 307.636 108.78 308.484 107.933L318.609 97.8076C319.456 96.9603 320.83 96.9603 321.677 97.8076Z" fill="#01121C"/>
</svg>
