<svg width="94" height="100" viewBox="0 0 94 100" fill="none" xmlns="http://www.w3.org/2000/svg">
<path d="M66.6749 75.0961C64.535 72.9562 61.6328 71.754 58.6065 71.754C55.5815 71.7559 52.681 72.9589 50.5427 75.0985C48.4043 77.2382 47.2031 80.1394 47.2031 83.1644C47.2031 84.6629 47.4983 86.1466 48.0717 87.531C48.6451 88.9154 49.4856 90.1733 50.5452 91.2328C51.6047 92.2924 52.8626 93.1328 54.247 93.7063C55.6313 94.2797 57.1151 94.5749 58.6135 94.5749C60.9104 94.5734 63.1354 93.8796 65.0095 92.609L70.0168 100V83.227C70.0169 83.2061 70.0169 83.1853 70.0169 83.1644C70.0169 80.1382 68.8148 77.2359 66.6749 75.0961Z" fill="white"/>
<path d="M81.8992 0.00352689H34.2975C31.2722 -0.0716647 28.3409 1.05802 26.1485 3.14406C23.9561 5.2301 22.6822 8.10162 22.607 11.1269C22.5319 14.1522 23.6615 17.0835 25.7476 19.2759C27.8336 21.4682 30.7051 22.7422 33.7304 22.8173C33.9218 22.8173 34.1108 22.8173 34.2975 22.8173H81.8992C83.3971 22.8546 84.8878 22.5964 86.286 22.0575C87.6842 21.5187 88.9626 20.7097 90.0481 19.6768C91.1337 18.6439 92.0051 17.4073 92.6128 16.0376C93.2205 14.6679 93.5524 13.1919 93.5896 11.6939C93.6268 10.196 93.3686 8.70533 92.8298 7.30713C92.2909 5.90893 91.482 4.63056 90.4491 3.54501C89.4162 2.45945 88.1796 1.58797 86.8098 0.980321C85.4401 0.372673 83.9642 0.040758 82.4662 0.00352689H81.8992Z" fill="white"/>
<path fill-rule="evenodd" clip-rule="evenodd" d="M78.3718 3.78725C77.8422 4.31682 77.8422 5.17542 78.3718 5.70498L83.7411 11.0743L78.3718 16.4436C77.8422 16.9732 77.8422 17.8318 78.3718 18.3614C78.9014 18.8909 79.7599 18.8909 80.2895 18.3614L86.6177 12.0332C87.1473 11.5036 87.1473 10.645 86.6177 10.1154L80.2895 3.78725C79.7599 3.25768 78.9014 3.25768 78.3718 3.78725Z" fill="white"/>
<path d="M59.2957 36.1646H11.6939C8.66864 36.0894 5.73738 37.2191 3.54501 39.3051C1.35263 41.3912 0.0787185 44.2627 0.0035269 47.288C-0.0716647 50.3133 1.05802 53.2446 3.14406 55.4369C5.2301 57.6293 8.10163 58.9032 11.1269 58.9784C11.3183 58.9784 11.5073 58.9784 11.6939 58.9784H59.2957C60.7936 59.0156 62.2843 58.7575 63.6825 58.2186C65.0807 57.6798 66.359 56.8708 67.4446 55.8379C68.5302 54.805 69.4016 53.5684 70.0093 52.1987C70.6169 50.829 70.9489 49.353 70.9861 47.855C71.0233 46.357 70.7651 44.8664 70.2263 43.4682C69.6874 42.07 68.8784 40.7916 67.8455 39.7061C66.8126 38.6205 65.576 37.749 64.2063 37.1414C62.8366 36.5337 61.3607 36.2018 59.8627 36.1646H59.2957Z" fill="#32B7FF"/>
<path fill-rule="evenodd" clip-rule="evenodd" d="M15.4231 40.5048C15.9527 41.0344 15.9527 41.893 15.4231 42.4226L10.0538 47.7919L15.4231 53.1612C15.9527 53.6908 15.9527 54.5494 15.4231 55.079C14.8936 55.6085 14.035 55.6085 13.5054 55.079L7.17722 48.7508C6.64765 48.2212 6.64765 47.3626 7.17722 46.833L13.5054 40.5048C14.035 39.9753 14.8936 39.9753 15.4231 40.5048Z" fill="#01121C"/>
</svg>
