<svg width="200" height="200" viewBox="0 0 200 200" fill="none" xmlns="http://www.w3.org/2000/svg">
<rect width="200" height="200" rx="30" fill="#01121C"/>
<path d="M130.68 142.154C127.256 138.73 122.613 136.806 117.771 136.806C112.931 136.809 108.29 138.734 104.869 142.158C101.447 145.581 99.5254 150.223 99.5254 155.063C99.5254 157.461 99.9976 159.835 100.915 162.05C101.833 164.265 103.177 166.277 104.873 167.972C106.568 169.668 108.581 171.012 110.796 171.93C113.011 172.847 115.385 173.32 117.782 173.32C121.457 173.317 125.017 172.207 128.016 170.174L136.027 182V155.163C136.027 155.13 136.027 155.096 136.027 155.063C136.027 150.221 134.104 145.577 130.68 142.154Z" fill="white"/>
<path d="M155.039 22.0056H78.8763C74.0358 21.8853 69.3458 23.6928 65.838 27.0305C62.3302 30.3682 60.292 34.9626 60.1717 39.8031C60.0514 44.6435 61.8588 49.3336 65.1965 52.8414C68.5342 56.3492 73.1286 58.3874 77.9691 58.5077C78.2752 58.5077 78.5776 58.5077 78.8763 58.5077H155.039C157.436 58.5673 159.821 58.1542 162.058 57.292C164.295 56.4299 166.34 55.1355 168.077 53.4829C169.814 51.8302 171.209 49.8517 172.181 47.6601C173.153 45.4686 173.684 43.1071 173.744 40.7103C173.803 38.3135 173.39 35.9285 172.528 33.6914C171.666 31.4543 170.371 29.4089 168.719 27.672C167.066 25.9351 165.088 24.5407 162.896 23.5685C160.705 22.5963 158.343 22.0652 155.946 22.0056H155.039Z" fill="white"/>
<path fill-rule="evenodd" clip-rule="evenodd" d="M149.395 28.0598C148.548 28.9071 148.548 30.2809 149.395 31.1282L157.986 39.7191L149.395 48.31C148.548 49.1573 148.548 50.5311 149.395 51.3784C150.243 52.2257 151.616 52.2257 152.464 51.3784L162.589 41.2533C163.436 40.406 163.436 39.0322 162.589 38.1849L152.464 28.0598C151.616 27.2125 150.243 27.2125 149.395 28.0598Z" fill="white"/>
<path d="M118.873 79.8633H42.7103C37.8698 79.743 33.1798 81.5505 29.672 84.8882C26.1642 88.2258 24.1259 92.8203 24.0056 97.6607C23.8853 102.501 25.6928 107.191 29.0305 110.699C32.3682 114.207 36.9626 116.245 41.8031 116.365C42.1092 116.365 42.4116 116.365 42.7103 116.365H118.873C121.27 116.425 123.655 116.012 125.892 115.15C128.129 114.288 130.174 112.993 131.911 111.341C133.648 109.688 135.043 107.709 136.015 105.518C136.987 103.326 137.518 100.965 137.578 98.568C137.637 96.1712 137.224 93.7862 136.362 91.5491C135.5 89.312 134.205 87.2666 132.553 85.5297C130.9 83.7928 128.922 82.3984 126.73 81.4262C124.539 80.4539 122.177 79.9229 119.78 79.8633H118.873Z" fill="#32B7FF"/>
<path fill-rule="evenodd" clip-rule="evenodd" d="M48.677 86.8077C49.5243 87.655 49.5243 89.0288 48.677 89.8761L40.0861 98.467L48.677 107.058C49.5243 107.905 49.5243 109.279 48.677 110.126C47.8297 110.974 46.456 110.974 45.6087 110.126L35.4836 100.001C34.6363 99.1539 34.6363 97.7801 35.4836 96.9328L45.6087 86.8077C46.456 85.9604 47.8297 85.9604 48.677 86.8077Z" fill="#01121C"/>
</svg>
