<svg width="125" height="125" viewBox="0 0 125 125" fill="none" xmlns="http://www.w3.org/2000/svg">
<g clip-path="url(#clip0_1915_43156)">
<path d="M123.964 38.8129L103.432 26.9543L82.8936 15.0968L82.7291 15.3746L82.8892 15.0968L62.3555 3.23923C62.2563 3.18197 62.1345 3.18197 62.0353 3.23923L41.4944 15.0968L41.6545 15.3746L41.4944 15.0968L20.9577 26.9543L21.1177 27.2322L20.9577 26.9543L0.419848 38.8129C0.320654 38.8702 0.259766 38.9758 0.259766 39.0903V86.5205C0.259766 86.6354 0.320652 86.7411 0.419848 86.7983L20.9577 98.6559L41.4944 110.513L62.0322 122.371C62.1314 122.428 62.2536 122.428 62.3528 122.371L103.429 98.6559L123.964 86.7983C124.063 86.7411 124.124 86.6354 124.124 86.5205V39.0903C124.124 38.9758 124.063 38.8702 123.964 38.8129H123.964ZM123.483 62.6219L103.586 74.1099V51.1339L123.483 39.6459V62.6219ZM0.90278 39.6459L20.8006 51.1339L20.8002 74.1099L0.903409 62.6219L0.90278 39.6459ZM62.1972 74.2937L42.2994 62.8057L62.1972 51.3177L82.0899 62.8057L62.1972 74.2937ZM41.6594 39.4684L61.5572 50.9564L41.6594 62.4444L21.7616 50.9481L41.6594 39.4684ZM82.7361 39.4684L102.634 50.9564L82.7319 62.4361L62.8393 50.9481L82.7361 39.4684ZM21.4413 51.5035L41.3391 62.9915L41.3387 85.9675L21.4419 74.4795L21.4413 51.5035ZM83.0558 62.9915L102.954 51.5035L102.953 74.4795L83.0554 85.9675L83.0558 62.9915ZM62.1969 50.5784L42.2991 39.0904L62.1969 27.6024L82.0896 39.0904L62.1969 50.5784ZM41.6591 38.7208L21.7613 27.2328L41.6591 15.7448L61.5569 27.2328L41.6591 38.7208ZM41.018 39.0906L21.1202 50.5786L1.22341 39.0906L21.1212 27.6026L41.018 39.0906ZM21.4412 75.2196L41.339 86.7076L41.3386 109.684L21.4418 98.1956L21.4412 75.2196ZM41.979 63.3621L61.8768 74.8501L61.8764 97.8261L41.9786 86.3381L41.979 63.3621ZM62.5168 74.8501L82.4146 63.3621L82.4142 86.3381L62.5164 97.8261L62.5168 74.8501ZM83.0546 86.7076L102.952 75.2196L102.952 98.1956L83.0542 109.684L83.0546 86.7076ZM123.17 39.0906L103.272 50.5786L83.3705 39.0906L103.268 27.6026L123.17 39.0906ZM102.632 27.233L82.7305 38.721L62.8379 27.233L82.7305 15.745L102.632 27.233ZM62.1968 3.88749L82.0895 15.3755L62.1917 26.8635L42.299 15.3755L62.1968 3.88749ZM0.90238 63.3621L20.8002 74.8501L20.7998 97.8261L0.903009 86.3381L0.90238 63.3621ZM41.979 87.0772L61.8768 98.5652L61.8764 121.541L41.9786 110.053L41.979 87.0772ZM62.5168 121.541V98.5652L82.4146 87.0772L82.4142 110.053L62.5168 121.541ZM103.593 97.8261V74.8501L123.491 63.3621L123.491 86.3381L103.593 97.8261Z" fill="#32B7FF" stroke="#32B7FF" stroke-width="1.4"/>
</g>
<defs>
<clipPath id="clip0_1915_43156">
<rect width="123.871" height="123.871" fill="white" transform="translate(0.257812 0.871094)"/>
</clipPath>
</defs>
</svg>
