<svg width="124" height="125" viewBox="0 0 124 125" fill="none" xmlns="http://www.w3.org/2000/svg">
<g clip-path="url(#clip0_1915_43152)">
<path d="M123.706 62.5287L103.174 50.6711L103.014 50.9489L103.174 50.6711L82.6355 38.8136L62.0977 26.956C61.9985 26.8988 61.8767 26.8988 61.7775 26.956L41.2366 38.8136L20.6998 50.6711L20.8599 50.9489L20.6998 50.6711L0.162036 62.5287C0.0628419 62.5859 0.00195312 62.692 0.00195312 62.8065V86.5216C0.00195312 86.6361 0.0628398 86.7421 0.162036 86.7994L20.6998 98.657C20.799 98.7142 20.9212 98.7142 21.0204 98.657L41.3982 86.8913L61.776 98.657C61.8752 98.7142 61.997 98.7142 62.0962 98.657L82.4699 86.8933L102.853 98.657C102.952 98.7142 103.074 98.7142 103.173 98.657L123.705 86.7994C123.804 86.7421 123.865 86.6361 123.865 86.5216V62.8065C123.865 62.692 123.804 62.5859 123.705 62.5287H123.706ZM122.905 62.8065L103.007 74.2945L83.1122 62.8065L103.01 51.3185L122.905 62.8065ZM61.9375 51.3185L81.8302 62.8065L61.9324 74.2945L42.0397 62.8065L61.9375 51.3185ZM20.8609 74.2943L0.963058 62.8063L20.8609 51.3183L40.7576 62.8063L20.8609 74.2943ZM21.1814 74.8499L41.0792 63.3619L41.0788 86.3379L21.1821 97.8259L21.1814 74.8499ZM41.7192 63.3619L61.617 74.8499L61.6166 97.8259L41.7188 86.3379L41.7192 63.3619ZM62.257 74.8499L82.1549 63.3619L82.1544 86.3379L62.2566 97.8259L62.257 74.8499ZM82.7949 63.3619L102.693 74.8499L102.692 97.8259L82.7944 86.3379L82.7949 63.3619ZM102.372 50.949L82.4697 62.437L62.577 50.949L82.4697 39.461L102.372 50.949ZM61.936 27.6035L81.8287 39.0915L61.9309 50.5795L42.0382 39.0915L61.936 27.6035ZM41.3982 39.461L61.296 50.949L41.3982 62.437L21.5004 50.949L41.3982 39.461ZM0.642593 63.3619L20.5404 74.8499L20.54 97.8259L0.643222 86.3379L0.642593 63.3619ZM103.334 97.8259V74.8499L123.231 63.3619L123.231 86.3379L103.334 97.8259Z" fill="#32B7FF" stroke="#32B7FF" stroke-width="1.4"/>
</g>
<defs>
<clipPath id="clip0_1915_43152">
<rect width="123.871" height="123.871" fill="white" transform="translate(0 0.871094)"/>
</clipPath>
</defs>
</svg>
