<svg width="124" height="125" viewBox="0 0 124 125" fill="none" xmlns="http://www.w3.org/2000/svg">
<g clip-path="url(#clip0_1915_43155)">
<path d="M88.91 16.3064L62.2716 0.926739C62.143 0.852545 61.9849 0.852545 61.8563 0.926739L35.2178 16.3064C35.0892 16.3805 35.0098 16.518 35.0098 16.6664V108.944C35.0098 109.092 35.0892 109.23 35.2178 109.304L61.8563 124.684V124.684C61.9849 124.758 62.143 124.758 62.2716 124.684L88.91 109.305V109.304C89.0387 109.23 89.1181 109.092 89.1181 108.944V16.6664C89.1181 16.518 89.0387 16.3806 88.91 16.3064ZM61.6481 32.2878V62.0849L35.8406 47.1874V17.3871L61.6481 32.2878ZM61.6481 63.0497V92.8468L35.8406 77.9472V48.147L61.6481 63.0497ZM88.2866 77.9503L62.4791 92.8468V63.0466L88.2866 48.1459V77.9503ZM62.4791 32.2873L88.2866 17.3867V47.187L62.4791 62.0845V32.2873ZM62.0634 1.76657L87.8708 16.6662L62.0634 31.5668L36.2559 16.6662L62.0634 1.76657ZM35.8399 78.9062L61.6474 93.8068V123.607L35.8399 108.707V78.9062ZM62.4783 123.607V93.8068L88.2858 78.9062V108.707L62.4783 123.607Z" fill="#32B7FF" stroke="#32B7FF" stroke-width="1.4"/>
</g>
<defs>
<clipPath id="clip0_1915_43155">
<rect width="123.871" height="123.871" fill="white" transform="translate(0.128906 0.871094)"/>
</clipPath>
</defs>
</svg>
