<svg width="124" height="124" viewBox="0 0 124 124" fill="none" xmlns="http://www.w3.org/2000/svg">
<g clip-path="url(#clip0_1915_43151)">
<path d="M123.762 26.0389L93.0335 8.29849C92.8851 8.213 92.7025 8.213 92.5541 8.29849L62.0653 25.9016L31.5765 8.29849C31.4281 8.213 31.2455 8.213 31.0971 8.29849L0.368824 26.0389C0.220034 26.1248 0.128906 26.2832 0.128906 26.4546V97.4172C0.128906 97.5886 0.220035 97.747 0.368824 97.8329L31.0971 115.573C31.2455 115.659 31.4281 115.659 31.5765 115.573L62.0653 97.9702L92.5541 115.573C92.7025 115.659 92.8851 115.659 93.0335 115.573L123.762 97.8329C123.911 97.747 124.002 97.5885 124.002 97.4172V26.4546C124.002 26.2832 123.911 26.1248 123.762 26.0389ZM30.3796 44.1953L1.09027 61.1047V27.2858L30.3796 44.1953ZM62.0668 27.0077L91.8361 44.1948L62.0668 61.3819L32.2975 44.1948L62.0668 27.0077ZM31.3385 44.7481L61.1078 61.9352L31.3385 79.1223L1.56924 61.9352L31.3385 44.7481ZM31.818 79.9512L61.5873 62.7641V97.1424L31.818 114.33V79.9512ZM62.5462 62.7641L92.3155 79.9512V114.33L62.5462 97.1424V62.7641ZM92.7945 79.1202L63.0252 61.9352L92.7945 44.7481L122.558 61.9352L92.7945 79.1202ZM93.7534 44.1917L123.043 27.2823L123.043 61.1042L93.7534 44.1917ZM92.7945 9.26318L122.558 26.4544L92.7883 43.6415L63.0252 26.4544L92.7945 9.26318ZM31.338 9.26318L61.1073 26.4544L31.338 43.6415L1.56867 26.4544L31.338 9.26318ZM1.0897 62.7662L30.859 79.9532V114.328L1.0897 97.1414V62.7662ZM93.2745 114.33V79.9543L123.044 62.7672V97.1424L93.2745 114.33Z" fill="#32B7FF" stroke="#32B7FF" stroke-width="1.4"/>
</g>
<defs>
<clipPath id="clip0_1915_43151">
<rect width="123.871" height="123.871" fill="white" transform="translate(0.128906)"/>
</clipPath>
</defs>
</svg>
