<svg width="125" height="124" viewBox="0 0 125 124" fill="none" xmlns="http://www.w3.org/2000/svg">
<g clip-path="url(#clip0_1915_43154)">
<path d="M123.964 49.8004L103.432 37.9429L82.8936 26.0853L82.7291 26.3631L82.8892 26.0853L62.3555 14.2278C62.2563 14.1705 62.1345 14.1705 62.0353 14.2278L41.4944 26.0853L41.6545 26.3631L41.4944 26.0853L20.9577 37.9429L0.419848 49.8004C0.320654 49.8577 0.259766 49.9637 0.259766 50.0782V73.7933C0.259766 73.9078 0.320652 74.0139 0.419848 74.0711L20.9577 85.9287L41.4944 97.7862L62.0322 109.644C62.1314 109.701 62.2536 109.701 62.3528 109.644L103.429 85.9287L123.964 74.0711C124.063 74.0139 124.124 73.9078 124.124 73.7933V50.0782C124.124 49.9637 124.063 49.8577 123.964 49.8004H123.964ZM123.163 50.0782L103.265 61.5662L83.3703 50.0782L103.268 38.5902L123.163 50.0782ZM62.1956 85.2811L42.2978 73.7931L62.1956 62.3051L82.0883 73.7931L62.1956 85.2811ZM41.6578 50.4558L61.5556 61.9438L41.6578 73.4318L21.76 61.9356L41.6578 50.4558ZM62.1956 61.566L42.2978 50.078L62.1956 38.59L82.0883 50.078L62.1956 61.566ZM41.6578 49.7085L21.76 38.2205L41.6578 26.7325L61.5556 38.2205L41.6578 49.7085ZM41.0167 50.0782L21.1199 61.5662L1.22212 50.0782L21.1199 38.5902L41.0167 50.0782ZM21.4399 62.4911L41.3377 73.9791L41.3373 96.9551L21.4406 85.4671L21.4399 62.4911ZM41.9777 74.3487L61.8755 85.8367L61.8751 108.813L41.9773 97.3247L41.9777 74.3487ZM62.5155 85.8367L82.4133 74.3487L82.4129 97.3247L62.5151 108.813L62.5155 85.8367ZM82.7292 73.4236L62.8366 61.9356L82.7292 50.4476L102.627 61.9356L82.7292 73.4236ZM102.631 38.2205L82.7292 49.7085L62.8366 38.2205L82.7292 26.7325L102.631 38.2205ZM62.1955 14.8749L82.0882 26.3629L62.1904 37.8509L42.2977 26.3629L62.1955 14.8749ZM0.901087 50.6334L20.7989 62.1214L20.7985 85.0974L0.901716 73.6094L0.901087 50.6334ZM83.0544 73.9789L102.952 62.4909L102.952 85.4669L83.054 96.9549L83.0544 73.9789ZM103.592 85.0891V62.1214L123.49 50.6334L123.49 73.6094L103.592 85.0891Z" fill="#32B7FF" stroke="#32B7FF" stroke-width="1.4"/>
</g>
<defs>
<clipPath id="clip0_1915_43154">
<rect width="123.871" height="123.871" fill="white" transform="translate(0.257812)"/>
</clipPath>
</defs>
</svg>
