<svg width="125" height="124" viewBox="0 0 125 124" fill="none" xmlns="http://www.w3.org/2000/svg">
<g clip-path="url(#clip0_1915_43153)">
<path d="M108.184 17.6225L77.7698 0.0627754C77.623 -0.0219017 77.442 -0.0219017 77.2952 0.0627754L46.8808 17.6225C46.734 17.7076 46.6433 17.8645 46.6437 18.0338V52.8818L16.4656 70.3022C16.3188 70.3873 16.2285 70.5437 16.2285 70.7135V105.833C16.2285 106.003 16.3188 106.16 16.4656 106.244L46.8801 123.804C47.0268 123.889 47.2079 123.889 47.3547 123.804L108.185 88.6845C108.331 88.5994 108.422 88.4426 108.422 88.2732V18.0332C108.422 17.8639 108.331 17.707 108.185 17.6219L108.184 17.6225ZM107.473 52.8783L78.0068 69.8909L78.0064 35.8687L107.472 18.8561L107.473 52.8783ZM77.0581 35.8656L77.0577 69.894L47.5919 52.8814V18.8561L77.0581 35.8656ZM47.1175 53.701L76.5833 70.7136L47.1175 87.7263L17.6517 70.7136L47.1175 53.701ZM47.5921 88.5448L77.0579 71.5322L77.0575 105.561L47.5917 122.573L47.5921 88.5448ZM77.5317 1.02071L106.998 18.0334L77.5317 35.046L48.0659 18.0334L77.5317 1.02071ZM17.1766 71.5353L46.6424 88.5479V122.573L17.1766 105.561V71.5353ZM78.0065 105.013V70.9882L107.472 53.9756V88.0008L78.0065 105.013Z" fill="#32B7FF" stroke="#32B7FF" stroke-width="1.4"/>
</g>
<defs>
<clipPath id="clip0_1915_43153">
<rect width="123.871" height="123.871" fill="white" transform="translate(0.386719)"/>
</clipPath>
</defs>
</svg>
