<svg width="124" height="124" viewBox="0 0 124 124" fill="none" xmlns="http://www.w3.org/2000/svg">
<g clip-path="url(#clip0_1915_43150)">
<path d="M123.004 70.3019L92.8274 52.8784V18.0345C92.8274 17.8652 92.7371 17.7083 92.5899 17.6232L62.1755 0.0635079C62.0287 -0.0211693 61.848 -0.0211693 61.7013 0.0635079L31.2868 17.6232C31.1396 17.7083 31.0493 17.8652 31.0493 18.0345V52.8825L0.872268 70.3029C0.725088 70.388 0.634766 70.5445 0.634766 70.7142V105.834C0.634766 106.003 0.725088 106.16 0.872268 106.245L31.2867 123.805C31.4335 123.889 31.6145 123.889 31.7613 123.805L61.9384 106.381L92.1154 123.805C92.2622 123.889 92.4432 123.889 92.59 123.805L123.004 106.245C123.152 106.16 123.242 106.003 123.242 105.834V70.7142C123.242 70.5445 123.152 70.388 123.004 70.3029V70.3019ZM61.4633 35.8689V69.8941L31.9975 52.8815V18.8562L61.4633 35.8689ZM91.878 52.8786L62.4122 69.8913V35.8691L91.878 18.8564V52.8786ZM31.5229 53.7012L60.9887 70.7138L31.5229 87.7265L2.05706 70.7138L31.5229 53.7012ZM31.9975 88.5451L61.4633 71.5324V105.561L31.9975 122.573V88.5451ZM62.4119 71.5324L91.8777 88.5451V122.573L62.4119 105.561V71.5324ZM92.3526 87.7224L62.8868 70.7128L92.3526 53.7002L121.812 70.7128L92.3526 87.7224ZM61.9381 1.03127L91.4039 18.0336L61.9381 35.0462L32.4723 18.0336L61.9381 1.03127ZM1.58302 71.5366L31.0488 88.5492V122.574L1.58302 105.562V71.5366ZM92.8274 122.574V88.5492L122.293 71.5366V105.562L92.8274 122.574Z" fill="#32B7FF" stroke="#32B7FF" stroke-width="1.4"/>
</g>
<defs>
<clipPath id="clip0_1915_43150">
<rect width="123.871" height="123.871" fill="white"/>
</clipPath>
</defs>
</svg>
